<svg height="64" viewBox="0 0 64 64" width="64" xmlns="http://www.w3.org/2000/svg"><g fill="#241F20"><path d="M10.97 20.17h13.74c2.227 0 1.259-2.971 1.259-2.971L21.116.911C20.65-.651 19.179.076 18.424.576c-5.257 3.921-8.892 9.842-9.723 16.619-.006.062-.312 2.975 2.269 2.975zm44.51 6.997c-.012-2.887-2.8-3.146-3.596-3.16H10.97c-2.27 0-2.353 1.787-2.307 2.454 1.273 11.371 11.289 20.231 23.464 20.231 11.919 0 21.75-8.498 23.353-19.525z"/><circle cx="15.976" cy="56.579" r="7.458"/><circle cx="48.023" cy="56.579" r="7.458"/></g></svg>