<svg height="75" viewBox="0 0 75 75" width="75" xmlns="http://www.w3.org/2000/svg"><path d="M52.374 31.948H22.626a4.164 4.164 0 0 0-4.164 4.164v.834a4.163 4.163 0 0 0 4.164 4.162h5.4v9.531c-.004.008-.011.014-.013.021l-3.061 7.389a4.151 4.151 0 0 0-5.062 2.369l-.32.77a4.165 4.165 0 0 0 2.254 5.441l3.472 1.438a.088.088 0 0 1 .01.006l.771.318a4.166 4.166 0 0 0 5.442-2.252l4.379-10.568h3.205L43.48 66.14a4.166 4.166 0 0 0 5.442 2.252l.771-.318a.088.088 0 0 1 .01-.006l3.473-1.438a4.166 4.166 0 0 0 2.253-5.441l-.32-.77c-.83-2-3.031-2.992-5.062-2.369l-3.061-7.389c-.002-.008-.009-.014-.013-.021v-9.531h5.4a4.163 4.163 0 0 0 4.164-4.162v-.834a4.163 4.163 0 0 0-4.163-4.165z" fill="#0CAFAF"/><path d="M56.478 37.54c-.292-2.014-2.008-3.566-4.104-3.566H22.626c-2.096 0-3.812 1.553-4.104 3.566.292 2.016 2.008 3.568 4.104 3.568h5.4v11.556c-.004.006-.011.012-.013.02l-3.061 7.389c-2.03-.621-4.231.371-5.062 2.369l-.32.771c-.08.191-.126.389-.176.586a4.146 4.146 0 0 0 2.43 2.83l3.472 1.438a.088.088 0 0 1 .01.006l.771.318a4.166 4.166 0 0 0 5.442-2.252l4.379-10.568h3.205L43.48 66.14a4.166 4.166 0 0 0 5.442 2.252l.771-.318a.088.088 0 0 1 .01-.006l3.473-1.438a4.152 4.152 0 0 0 2.429-2.83c-.05-.197-.096-.395-.176-.586l-.32-.771c-.83-1.998-3.031-2.99-5.062-2.369l-3.061-7.389c-.002-.008-.009-.014-.013-.02V41.109h5.4a4.153 4.153 0 0 0 4.105-3.569z" fill="#109BAD"/><path fill="#BC2A54" d="M45.277 41.108h5.399m-28.398 0h7.444M34.2 55.571h6.6"/><path d="M47.331 69.46a4.905 4.905 0 0 1-4.543-3.032l-4.186-10.106h-2.203l-4.187 10.105a4.907 4.907 0 0 1-6.423 2.657l-.77-.317a2.052 2.052 0 0 1-.046-.021l-3.437-1.422a4.92 4.92 0 0 1-2.659-6.422l.32-.771c.859-2.071 3.08-3.306 5.304-2.954l2.773-6.695v-8.623h-4.65a4.918 4.918 0 0 1-4.914-4.912v-.834a4.919 4.919 0 0 1 4.914-4.914h29.748a4.919 4.919 0 0 1 4.914 4.914v.834a4.918 4.918 0 0 1-4.914 4.912h-4.65v8.623l2.773 6.695c2.225-.351 4.444.882 5.304 2.955l.32.769a4.92 4.92 0 0 1-2.658 6.422l-3.438 1.424-.046.021-.771.318a4.868 4.868 0 0 1-1.875.374zM35.898 54.821h3.205a.75.75 0 0 1 .693.463l4.377 10.568a3.408 3.408 0 0 0 4.462 1.846l4.253-1.763a3.42 3.42 0 0 0 1.848-4.461l-.32-.769c-.657-1.585-2.486-2.448-4.149-1.94a.752.752 0 0 1-.913-.43l-3.042-7.345-.009-.017a.754.754 0 0 1-.079-.336v-9.531a.75.75 0 0 1 .75-.75h5.4a3.416 3.416 0 0 0 3.414-3.412v-.834a3.417 3.417 0 0 0-3.414-3.414H22.626a3.417 3.417 0 0 0-3.414 3.414v.834a3.416 3.416 0 0 0 3.414 3.412h5.4a.75.75 0 0 1 .75.75v9.531a.757.757 0 0 1-.079.336l-.009.017-3.042 7.345a.753.753 0 0 1-.913.43 3.432 3.432 0 0 0-1.009-.151c-1.381 0-2.613.82-3.141 2.091l-.32.771a3.42 3.42 0 0 0 1.849 4.461l3.472 1.437.042.02.737.305a3.409 3.409 0 0 0 4.464-1.846l4.378-10.567a.75.75 0 0 1 .693-.465z" fill="#093260"/><path d="M50.676 41.858h-5.398a.75.75 0 0 1 0-1.5h5.398a.75.75 0 0 1 0 1.5zm-20.954 0h-7.443a.75.75 0 0 1 0-1.5h7.443a.75.75 0 0 1 0 1.5zM40.8 56.321h-6.6a.75.75 0 0 1 0-1.5h6.6a.75.75 0 0 1 0 1.5z" fill="#093260"/><path d="M21.498 40.173c0 .494-.66.895-1.471.895h-2.062c-.813 0-1.474-.4-1.474-.895v-6.838c0-.492.66-.893 1.474-.893h2.062c.811 0 1.471.4 1.471.893v6.838z" fill="#EAE8C3"/><path d="M20.027 41.817h-2.062c-1.268 0-2.224-.707-2.224-1.645v-6.838c0-.937.956-1.643 2.224-1.643h2.062c1.266 0 2.221.706 2.221 1.643v6.838c0 .938-.955 1.645-2.221 1.645zm-2.779-1.646c.047 0 .3.146.717.146h2.062c.443 0 .701-.167.739-.225l-.019-6.758c-.013.022-.273-.143-.721-.143h-2.062c-.445 0-.704.167-.743.226l.02 6.755.007-.001z" fill="#093260"/><path d="M58.509 40.173c0 .494-.66.895-1.474.895h-2.061c-.812 0-1.473-.4-1.473-.895v-6.838c0-.492.66-.893 1.473-.893h2.061c.813 0 1.474.4 1.474.893v6.838z" fill="#EAE8C3"/><path d="M57.035 41.817h-2.061c-1.268 0-2.223-.707-2.223-1.645v-6.838c0-.937.955-1.643 2.223-1.643h2.061c1.268 0 2.224.706 2.224 1.643v6.838c0 .938-.956 1.645-2.224 1.645zm-2.776-1.646c.047 0 .3.146.716.146h2.061c.445 0 .704-.168.742-.226l-.019-6.757c-.014.025-.276-.143-.724-.143h-2.061c-.444 0-.703.167-.742.226l.02 6.755.007-.001z" fill="#093260"/><path d="M31.52 66.14l1.785-4.312c-.184-1.229-.753-2.188-1.666-2.578l-6.095-2.623-.591 1.424a4.151 4.151 0 0 0-5.062 2.369l-.32.77a4.165 4.165 0 0 0 2.254 5.441l3.472 1.438a.088.088 0 0 1 .01.006l.771.318a4.169 4.169 0 0 0 5.442-2.253z" fill="#F7F5DC"/><path d="M31.639 59.249l-5.384-2.318-1.302 3.143c-2.03-.621-4.231.371-5.062 2.369l-.32.771c-.08.191-.126.389-.176.586l.001.002a4.3 4.3 0 0 0 .313.834l.062.113c.117.221.258.43.413.625.045.057.086.113.134.164.152.176.326.332.508.479.062.051.117.105.183.152.249.178.519.336.816.461l3.472 1.438a.088.088 0 0 1 .01.006l.771.318a4.166 4.166 0 0 0 5.442-2.252l1.785-4.312c-.184-1.229-.753-2.188-1.666-2.579z" fill="#EAE8C3"/><path d="M55.429 61.188l-.32-.77c-.83-2-3.031-2.992-5.062-2.369l-.59-1.424-6.097 2.623c-.912.391-1.481 1.35-1.665 2.578l1.785 4.312a4.166 4.166 0 0 0 5.442 2.252l.771-.318a.088.088 0 0 1 .01-.006l3.473-1.438a4.164 4.164 0 0 0 2.253-5.44z" fill="#F7F5DC"/><path d="M54.174 66.017c.182-.146.355-.303.508-.479.048-.051.089-.107.134-.164.155-.195.296-.404.413-.625l.062-.113c.132-.268.24-.545.313-.834l.001-.002c-.05-.197-.096-.395-.176-.586l-.32-.771c-.83-1.998-3.031-2.99-5.062-2.369l-1.302-3.143-5.385 2.318c-.912.391-1.481 1.35-1.665 2.578l1.785 4.312a4.166 4.166 0 0 0 5.442 2.252l.771-.318a.088.088 0 0 1 .01-.006l3.473-1.438c.297-.125.566-.283.815-.461.066-.046.12-.101.183-.151z" fill="#EAE8C3"/><path d="M27.67 69.46c-.001 0-.001 0 0 0a4.872 4.872 0 0 1-1.88-.376l-.77-.317a2.052 2.052 0 0 1-.046-.021l-3.437-1.422a4.92 4.92 0 0 1-2.659-6.422l.32-.771a4.882 4.882 0 0 1 4.525-3.016c.261 0 .521.021.778.062l.349-.838a.75.75 0 0 1 .989-.401l6.095 2.623c1.129.482 1.879 1.604 2.111 3.155a.752.752 0 0 1-.049.398l-1.785 4.312a4.9 4.9 0 0 1-4.541 3.034zm-2.044-2.066l.737.305a3.409 3.409 0 0 0 4.464-1.846l1.702-4.111c-.118-.602-.419-1.474-1.186-1.802l-5.398-2.323-.3.722a.75.75 0 0 1-.912.43 3.432 3.432 0 0 0-1.009-.151c-1.381 0-2.613.82-3.141 2.091l-.32.771a3.42 3.42 0 0 0 1.849 4.461l3.472 1.437c.014.002.027.009.042.016zm21.705 2.066a4.905 4.905 0 0 1-4.543-3.032l-1.786-4.313a.764.764 0 0 1-.049-.398c.232-1.552.982-2.673 2.112-3.156l6.095-2.622a.755.755 0 0 1 .579-.007.754.754 0 0 1 .411.408l.347.838c2.225-.351 4.444.882 5.304 2.955l.32.769a4.92 4.92 0 0 1-2.658 6.422l-3.438 1.423a.382.382 0 0 1-.046.021l-.771.318a4.885 4.885 0 0 1-1.877.374zm-4.86-7.72l1.703 4.112a3.408 3.408 0 0 0 3.157 2.107 3.4 3.4 0 0 0 1.305-.261l4.253-1.763a3.42 3.42 0 0 0 1.848-4.461l-.32-.769c-.657-1.585-2.486-2.448-4.149-1.94a.752.752 0 0 1-.913-.43l-.299-.722-5.397 2.322c-.769.332-1.07 1.204-1.188 1.805zM37.5 55.853a.75.75 0 0 1-.75-.75v-3.762a.75.75 0 0 1 1.5 0v3.762a.75.75 0 0 1-.75.75zm0-6.651a.75.75 0 0 1-.75-.75V44.69a.75.75 0 0 1 1.5 0v3.762a.75.75 0 0 1-.75.75z" fill="#093260"/><circle cx="37.5" cy="43.38" fill="#EAE8C3" r="1.875"/><path d="M37.5 42.868c-.795 0-1.47.496-1.743 1.193.273.697.948 1.193 1.743 1.193s1.47-.496 1.744-1.193a1.875 1.875 0 0 0-1.744-1.193z" fill="#D1CD9D"/><path d="M37.5 46.005c-1.447 0-2.625-1.178-2.625-2.625s1.178-2.625 2.625-2.625 2.625 1.178 2.625 2.625-1.178 2.625-2.625 2.625zm0-3.75c-.62 0-1.125.505-1.125 1.125s.505 1.125 1.125 1.125 1.125-.505 1.125-1.125-.505-1.125-1.125-1.125z" fill="#093260"/><circle cx="37.5" cy="49.468" fill="#EAE8C3" r="1.875"/><path d="M37.5 48.954c-.795 0-1.47.496-1.743 1.195a1.87 1.87 0 0 0 3.487 0 1.873 1.873 0 0 0-1.744-1.195z" fill="#D1CD9D"/><path d="M37.5 52.091a2.627 2.627 0 0 1-2.625-2.623c0-1.448 1.178-2.627 2.625-2.627s2.625 1.179 2.625 2.627a2.627 2.627 0 0 1-2.625 2.623zm0-3.75a1.126 1.126 0 1 0 1.125 1.127c0-.621-.505-1.127-1.125-1.127z" fill="#093260"/><path d="M47.895 18.847v10.492c0 5.207-4.223 9.43-9.429 9.43h-2.575c-5.206 0-9.429-4.223-9.429-9.43V18.847h21.433z" fill="#FFE6E1"/><path d="M47.895 17.321v10.492c0 5.207-4.223 9.428-9.429 9.428h-2.575c-5.206 0-9.429-4.221-9.429-9.428V17.321h21.433z" fill="#F2D1C9"/><path d="M26.462 26.187c.351.145.732.225 1.134.225h11.866a2.968 2.968 0 0 0 2.717-1.777 2.96 2.96 0 0 0 2.713 1.777h3.003v-6.025H26.462v5.8z" fill="#E8B6AC"/><path d="M26.462 24.649c.351.145.732.223 1.134.223h11.866a2.965 2.965 0 0 0 2.717-1.775 2.954 2.954 0 0 0 2.713 1.775h3.003v-6.025H26.462v5.802z" fill="#EAB818"/><path d="M47.895 25.622h-3.003a3.706 3.706 0 0 1-2.714-1.18 3.72 3.72 0 0 1-2.716 1.18H27.596c-.492 0-.97-.094-1.42-.279a.752.752 0 0 1-.464-.693v-5.803a.75.75 0 0 1 .75-.75h21.433a.75.75 0 0 1 .75.75v6.025a.75.75 0 0 1-.75.75zm-5.716-3.275c.299 0 .568.178.688.45a2.208 2.208 0 0 0 2.025 1.325h2.253v-4.525H27.212v4.493c.126.021.254.032.384.032h11.866c.879 0 1.676-.521 2.03-1.327a.748.748 0 0 1 .687-.448z" fill="#093260"/><path d="M37.177 18.114c5.895 0 10.671 1.594 10.671 3.562v2.33c0-1.967-4.776-3.561-10.671-3.561-5.893 0-10.669 1.594-10.669 3.561v-2.33c0-1.968 4.776-3.562 10.669-3.562z" fill="#F26606"/><path d="M38.466 39.519h-2.575c-5.612 0-10.179-4.566-10.179-10.18V18.847a.75.75 0 0 1 .75-.75h21.433a.75.75 0 0 1 .75.75v10.492c0 5.613-4.567 10.18-10.179 10.18zM27.212 19.597v9.742c0 4.786 3.894 8.68 8.679 8.68h2.575c4.785 0 8.679-3.894 8.679-8.68v-9.742H27.212z" fill="#093260"/><path d="M37.159 15.659c6.189 0 11.207 1.676 11.207 3.742v3.543h-.015c-.158-2.02-5.103-3.643-11.192-3.643s-11.032 1.623-11.192 3.643h-.016v-3.543c0-2.066 5.02-3.742 11.208-3.742z" fill="#F7F5DC"/><path d="M37.159 16.854c6.189 0 11.207 1.676 11.207 3.74v2.447c0-2.064-5.018-3.742-11.207-3.742-6.188 0-11.208 1.678-11.208 3.742v-2.447c0-2.064 5.02-3.74 11.208-3.74z" fill="#EAE8C3"/><path d="M37.159 15.659c-4.557 0-8.473.914-10.227 2.215.243-.871.373-1.777.373-2.715 0-1.746-.449-3.395-1.227-4.867 2.234-2.443 5.586-4.002 9.339-4.002 6.731 0 12.187 5.002 12.187 11.17 0 .186-.022.375-.032.564-1.646-1.384-5.679-2.365-10.413-2.365z" fill="#1BC1A9"/><path d="M35.418 8.458c6.107 0 11.164 4.115 12.048 9.486-1.707-1.342-5.665-2.285-10.307-2.285-4.266 0-7.971.799-9.863 1.971.003-.104.01-.203.01-.305 0-.371-.023-.734-.063-1.094.04-.352.063-.711.063-1.072a10.18 10.18 0 0 0-.573-3.355c2.208-2.063 5.282-3.346 8.685-3.346z" fill="#0CAFAF"/><path d="M44.369 16.546c-1.946-.551-4.457-.887-7.21-.887-4.266 0-7.971.799-9.863 1.971.003-.104.01-.203.01-.305 0-.371-.023-.734-.063-1.094.016-.139.026-.277.037-.418 2.156-1.781 5.007-2.871 8.139-2.871 3.542 0 6.723 1.391 8.95 3.604z" fill="#109BAD"/><path d="M26.477 11.683a2.595 2.595 0 1 1-5.19 0 2.594 2.594 0 1 1 5.19 0z" fill="#F7F5DC"/><path d="M26.04 10.245c.276.41.437.904.437 1.438 0 .758-.328 1.438-.848 1.91a2.583 2.583 0 0 1 .411-3.348z" fill="#EAE8C3"/><g fill="#093260"><path d="M48.366 23.794a.75.75 0 0 1-.75-.75c0-1.219-4.073-2.99-10.457-2.99s-10.458 1.771-10.458 2.99a.75.75 0 0 1-1.5 0c0-2.948 6.016-4.49 11.958-4.49 5.941 0 11.957 1.542 11.957 4.49a.75.75 0 0 1-.75.75z"/><path d="M48.366 23.794a.75.75 0 0 1-.75-.75c0-1.219-4.073-2.99-10.457-2.99s-10.458 1.771-10.458 2.99a.75.75 0 0 1-1.5 0c0-2.948 6.016-4.49 11.958-4.49 5.941 0 11.957 1.542 11.957 4.49a.75.75 0 0 1-.75.75z"/><path d="M48.366 23.694a.75.75 0 0 1-.75-.75v-3.543c0-1.22-4.073-2.992-10.457-2.992s-10.458 1.772-10.458 2.992v3.543a.75.75 0 0 1-1.5 0v-3.543c0-2.949 6.016-4.492 11.958-4.492 5.941 0 11.957 1.543 11.957 4.492v3.543a.75.75 0 0 1-.75.75z"/><path d="M47.572 18.774a.75.75 0 0 1-.482-.176c-1.296-1.09-4.869-2.189-9.931-2.189-4.183 0-8.112.831-9.78 2.067a.749.749 0 1 1-1.169-.803 9.36 9.36 0 0 0 .346-2.514c0-1.564-.384-3.084-1.14-4.517a.75.75 0 0 1 .109-.856c2.468-2.698 6.073-4.246 9.893-4.246 7.133 0 12.937 5.348 12.937 11.92 0 .137-.01.275-.021.414l-.013.189a.749.749 0 0 1-.749.711zm-10.413-3.865c3.912 0 7.486.667 9.662 1.755-.447-5.375-5.391-9.624-11.403-9.624-3.221 0-6.264 1.229-8.433 3.39a11 11 0 0 1 .994 6.004c2.203-.958 5.526-1.525 9.18-1.525z"/><path d="M23.88 15.026a3.347 3.347 0 0 1-3.343-3.344 3.35 3.35 0 0 1 3.343-3.348 3.351 3.351 0 0 1 3.347 3.348 3.349 3.349 0 0 1-3.347 3.344zm0-5.191a1.846 1.846 0 1 0 1.847 1.848 1.85 1.85 0 0 0-1.847-1.848z"/></g><g fill="#093260"><circle cx="42.963" cy="27.716" r="1.137"/><circle cx="31.394" cy="27.716" r="1.137"/></g><path d="M52.389 17.356h1.369v5.43a4.497 4.497 0 0 1-4.495 4.496h-1.368V21.85c0-2.48 2.01-4.494 4.494-4.494z" fill="#FFE6E1"/><path d="M52.389 19.044h1.369v3.742a4.497 4.497 0 0 1-4.495 4.496h-1.368v-3.744c0-2.48 2.01-4.494 4.494-4.494z" fill="#F2D1C9"/><path d="M49.263 28.032h-1.368a.75.75 0 0 1-.75-.75V21.85a5.25 5.25 0 0 1 5.244-5.244h1.369a.75.75 0 0 1 .75.75v5.43a5.251 5.251 0 0 1-5.245 5.246zm-.618-1.5h.618a3.75 3.75 0 0 0 3.745-3.746v-4.68h-.619a3.749 3.749 0 0 0-3.744 3.744v4.682z" fill="#093260"/><path d="M21.969 17.356h-1.37v5.43a4.496 4.496 0 0 0 4.495 4.496h1.368V21.85a4.495 4.495 0 0 0-4.493-4.494z" fill="#FFE6E1"/><path d="M26.462 23.538v3.744h-1.368a4.496 4.496 0 0 1-4.495-4.496v-3.742h1.37a4.495 4.495 0 0 1 4.493 4.494z" fill="#F2D1C9"/><path d="M26.462 28.032h-1.368a5.251 5.251 0 0 1-5.245-5.246v-5.43a.75.75 0 0 1 .75-.75h1.37a5.25 5.25 0 0 1 5.243 5.244v5.432a.75.75 0 0 1-.75.75zm-5.113-9.926v4.68a3.75 3.75 0 0 0 3.745 3.746h.618V21.85a3.748 3.748 0 0 0-3.743-3.744h-.62z" fill="#093260"/><path d="M42.428 30.62c0 2.9-2.35 5.252-5.25 5.252a5.25 5.25 0 0 1-5.249-5.252h10.499z" fill="#AA1F4D"/><path d="M40.427 34.737a5.205 5.205 0 0 1-3.249 1.135 5.207 5.207 0 0 1-3.248-1.135c.475-1.336 1.747-2.297 3.248-2.297s2.776.961 3.249 2.297z" fill="#BC2A54"/><path d="M37.178 36.622a6.007 6.007 0 0 1-5.999-6.002.75.75 0 0 1 .75-.75h10.499a.75.75 0 0 1 .75.75 6.008 6.008 0 0 1-6 6.002zm-4.437-5.252c.357 2.127 2.211 3.752 4.437 3.752s4.08-1.625 4.438-3.752h-8.875z" fill="#093260"/></svg>