<svg viewBox="0 0 512 512" xmlns="http://www.w3.org/2000/svg"><path d="M256 6C117.9 6 6 117.9 6 256s111.9 250 250 250 250-111.9 250-250S394.1 6 256 6zm158.6 408.6c-42.4 42.4-98.7 65.7-158.6 65.7S139.8 457 97.4 414.6C55.1 372.2 31.8 315.9 31.8 256S55.1 139.8 97.4 97.4C139.8 55 196.1 31.7 256 31.7S372.2 55 414.6 97.4c42.4 42.4 65.7 98.7 65.7 158.6s-23.4 116.2-65.7 158.6z"/><path d="M400.1 111.9C361.6 73.4 310.4 52.2 256 52.2c-54.4 0-105.6 21.2-144.1 59.7S52.2 201.6 52.2 256s21.2 105.6 59.7 144.1 89.7 59.7 144.1 59.7c54.4 0 105.6-21.2 144.1-59.7s59.7-89.7 59.7-144.1-21.2-105.6-59.7-144.1zM243.3 76.4h25.4v6.9h-16.4v8.3H266v6.9h-13.7v9.7h16.4v6.9h-25.4V76.4zM117 271.9h-9l-14.2-24.4-.2.1v24.3h-9v-38.8h9l14.2 24.4.2-.1v-24.3h9v38.8zm153.4 163.7H262l-6.5-23.9h-.2l-6.5 23.9h-8.5l-8.9-38.8h9.1l4.7 25.2h.2l6.6-25.2h6.8l6.6 25.1h.2l4.7-25.1h9.1l-9 38.8zm2.5-162.7L168 344l71.1-105L344 168l-71.1 104.9zm150.4-3.3c-2.7 1.9-6.2 2.9-10.6 2.9-4.4 0-8.1-1-11.1-3.1s-4.5-5.3-4.4-9.8l.1-.2h8.8c0 2.3.6 3.9 1.7 4.8 1.1.9 2.8 1.4 5.1 1.4 1.9 0 3.3-.4 4.2-1.1.9-.7 1.4-1.7 1.4-2.9 0-1.4-.5-2.4-1.4-3.2-.9-.7-2.5-1.5-4.9-2.4-4.8-1.6-8.4-3.2-10.7-5-2.3-1.8-3.5-4.3-3.5-7.6 0-3.2 1.4-5.9 4.1-7.9 2.7-2 6.2-3 10.4-3 4.4 0 8 1 10.7 3.1 2.7 2.1 4 5 3.9 8.7l-.1.2h-8.7c0-1.8-.5-3.2-1.5-4-1-.8-2.5-1.2-4.5-1.2-1.6 0-2.9.4-3.9 1.2-.9.8-1.4 1.8-1.4 3 0 1.1.5 2 1.5 2.7 1 .7 2.8 1.5 5.4 2.6 4.5 1.3 7.9 3 10.2 4.9 2.3 1.9 3.5 4.5 3.5 7.9-.3 3.4-1.6 6.1-4.3 8z"/><circle cx="256" cy="256" r="11.4"/></svg>