<svg height="128" viewBox="0 0 128 128" width="128" xmlns="http://www.w3.org/2000/svg"><path d="M84 20H44C19.699 20 0 39.703 0 64s19.699 44 44 44c7.211 0 13.996-1.766 20-4.844C70.004 106.234 76.789 108 84 108c24.301 0 44-19.703 44-44s-19.699-44-44-44zm0 80c-5.719 0-11.223-1.336-16.352-3.961A8.004 8.004 0 0 0 64 95.156a8 8 0 0 0-3.648.883C55.223 98.664 49.719 100 44 100 24.148 100 8 83.852 8 64s16.148-36 36-36h40c19.852 0 36 16.148 36 36s-16.148 36-36 36z" fill="#B0BEC5"/><path d="M44 92c-6.617 0-12-5.383-12-12v-4h-4c-6.617 0-12-5.383-12-12s5.383-12 12-12h4v-4c0-6.617 5.383-12 12-12s12 5.383 12 12v4h4c6.617 0 12 5.383 12 12s-5.383 12-12 12h-4v4c0 6.617-5.383 12-12 12zM28 60c-2.207 0-4 1.797-4 4s1.793 4 4 4h8c2.211 0 4 1.789 4 4v8c0 2.203 1.793 4 4 4s4-1.797 4-4v-8c0-2.211 1.789-4 4-4h8c2.207 0 4-1.797 4-4s-1.793-4-4-4h-8c-2.211 0-4-1.789-4-4v-8c0-2.203-1.793-4-4-4s-4 1.797-4 4v8c0 2.211-1.789 4-4 4h-8z" fill="#546E7A"/><path d="M96 60c0 4.422-3.582 8-8 8s-8-3.578-8-8 3.582-8 8-8 8 3.578 8 8z" fill="#4CAF50"/><path d="M112 52c0 4.422-3.582 8-8 8s-8-3.578-8-8 3.582-8 8-8 8 3.578 8 8z" fill="#03A9F4"/><path d="M96 84c0 4.422-3.582 8-8 8s-8-3.578-8-8 3.582-8 8-8 8 3.578 8 8z" fill="#FF9800"/><path d="M112 76c0 4.422-3.582 8-8 8s-8-3.578-8-8 3.582-8 8-8 8 3.578 8 8z" fill="#F44336"/></svg>