<svg height="800" viewBox="0 0 800 800" width="800" xmlns="http://www.w3.org/2000/svg"><path d="M773.641 384.54h-3.484c-8.336-10.012-24.864-16.331-45.983-16.331-8.007 0-15.339.915-21.826 2.588-6.11-61.93-30.904-118.446-68.641-163.843 6.318-3.571 12.667-8.36 18.585-14.282 8.402-8.402 14.943-18.009 18.393-27.05 2.604-6.812 3.193-12.497 2.728-17.151l1.724-1.735c6.041-6.034 6.041-15.826 0-21.861-6.038-6.039-15.822-6.039-21.86 0l-1.847 1.859c-.932-.091-1.742-.289-2.744-.289-12.56 0-28.019 7.945-41.358 21.266-6.124 6.125-10.869 12.449-14.337 18.678-45.586-37.55-102.268-62.047-164.296-67.853 1.967-6.911 3.105-14.796 3.105-23.531 0-21.119-6.314-37.641-16.341-45.982v-2.662c0-8.536-6.92-15.459-15.459-15.459-8.523 0-15.459 6.923-15.459 15.459v2.662c-10.007 8.342-16.322 24.863-16.322 45.982 0 8.748 1.138 16.642 3.123 23.557-62.012 5.875-118.658 30.433-164.192 68.025-3.502-6.293-8.282-12.686-14.459-18.875-13.337-13.321-28.797-21.275-41.359-21.275-1 0-1.811.199-2.744.29l-1.846-1.855c-6.038-6.039-15.822-6.039-21.861 0-6.039 6.035-6.039 15.827 0 21.861l1.743 1.74c-.465 4.654.121 10.339 2.709 17.142 3.451 9.045 9.99 18.657 18.393 27.063 5.988 5.997 12.423 10.831 18.824 14.417-37.752 45.456-62.512 102.055-68.552 164.063-6.78-1.881-14.493-2.946-23-2.946-21.119 0-37.632 6.319-45.97 16.331h-2.666c-8.532 0-15.459 6.923-15.459 15.46s6.927 15.459 15.459 15.459h2.666c8.338 10.011 24.851 16.331 45.97 16.331 8.454 0 16.133-1.052 22.879-2.911 5.729 62.051 30.144 118.762 67.637 164.382-5.866 3.486-11.716 7.999-17.202 13.484-14.942 14.938-22.154 31.087-20.964 44.067l-2.468 2.463c-6.039 6.034-6.039 15.826 0 21.86a15.393 15.393 0 0 0 10.922 4.53 15.4 15.4 0 0 0 10.938-4.53l2.434-2.441c.932.092 1.742.289 2.743.289 12.562 0 28.021-7.947 41.358-21.275 5.573-5.585 10.077-11.34 13.458-17.033 45.448 37.65 101.991 62.313 163.916 68.323-1.57 6.328-2.432 13.435-2.432 21.176 0 21.119 6.315 37.64 16.322 45.975v3.488c0 8.536 6.937 15.46 15.459 15.46 8.54 0 15.459-6.924 15.459-15.46v-3.488c10.026-8.335 16.341-24.855 16.341-45.975 0-7.73-.863-14.825-2.435-21.148 62.013-5.941 118.643-30.576 164.143-68.234a88.393 88.393 0 0 0 13.251 16.913c13.32 13.321 28.779 21.276 41.342 21.276 1.002 0 1.828-.199 2.744-.286l2.45 2.441a15.387 15.387 0 0 0 10.922 4.53c3.952 0 7.919-1.509 10.938-4.53 6.04-6.034 6.04-15.826 0-21.86l-2.467-2.466c1.173-12.978-6.039-29.126-20.964-44.061-5.419-5.414-11.181-9.884-16.962-13.35 37.479-45.562 61.909-102.189 67.705-164.159 6.454 1.648 13.754 2.55 21.708 2.55 21.119 0 37.647-6.32 45.983-16.331h3.484c8.54 0 15.459-6.923 15.459-15.459.001-8.54-6.918-15.463-15.458-15.463zM603.823 581.955l-20.395-20.389c34.819-39.483 57.061-90.276 60.406-146.106h28.679c-3.399 63.732-28.796 121.699-68.69 166.495zM218.171 603.7l21.085-21.079c39.202 34.884 89.723 57.283 145.282 60.983v29.456c-63.737-3.624-121.678-29.235-166.367-69.36zm-90.309-188.24h30.04c3.313 55.399 25.243 105.83 59.614 145.183l-21.136 21.128c-39.789-44.77-65.136-102.664-68.518-166.311zm69.26-196.48l21.084 21.09c-34.439 39.106-56.542 89.291-60.183 144.47h-30.04c3.744-63.414 29.246-121.052 69.139-165.56zm384.029-21.977l-20.395 20.395c-39.374-34.375-89.844-56.318-145.3-59.613V128.53c63.413 3.514 121.075 28.801 165.695 68.473zM400.187 454.55c-29.642 0-53.746-24.108-53.746-53.743 0-29.634 24.104-53.743 53.746-53.743 29.625 0 53.749 24.109 53.749 53.743s-24.123 53.743-53.749 53.743zm47.329-123.912c-9.49-6.419-20.359-10.9-32.059-13.04V188.785c46.933 3.202 89.705 21.681 123.387 50.517l-91.328 91.336zm-62.978-12.984c-11.63 2.183-22.448 6.708-31.886 13.14l-90.689-90.689c33.422-28.936 75.902-47.618 122.575-51.186v128.735zm-53.833 34.909c-6.574 9.447-11.285 20.274-13.579 31.977H189.012c3.554-46.664 22.207-89.14 51.107-122.566l90.586 90.589zm-13.821 62.897c2.087 11.919 6.608 23.018 13.13 32.672l-90.603 90.606c-28.814-33.668-47.294-76.398-50.503-123.278h127.976zm34.853 54.676a84.203 84.203 0 0 0 32.801 13.824v128.643c-47.052-3.592-89.843-22.557-123.386-51.887l90.585-90.58zm63.72 13.88a84.19 84.19 0 0 0 32.975-13.729l91.223 91.232c-33.801 29.236-76.886 47.991-124.197 51.219V484.016zm54.749-35.682c6.608-9.706 11.181-20.869 13.285-32.874h129.356c-3.263 47.311-22.05 90.396-51.314 124.2l-91.327-91.326zm13.045-63.794c-2.314-11.788-7.075-22.685-13.735-32.179l91.31-91.314c29.368 33.569 48.33 76.398 51.901 123.494H483.251zm-98.713-226.622c-55.18 3.679-105.372 25.808-144.471 60.282l-21.033-21.034c44.568-39.688 102.163-65.01 165.504-68.611v29.363zm30.919 485.817c55.837-3.313 106.615-25.528 146.111-60.313l20.446 20.441c-44.741 40.107-102.751 65.679-166.558 69.221v-29.349zM643.733 384.54c-3.694-55.61-26.088-106.157-60.994-145.394l20.343-20.355c39.994 44.538 65.55 102.25 69.311 165.749h-28.66z" fill="#4D4D4D"/></svg>