<svg viewBox="0 0 24 24" xmlns="http://www.w3.org/2000/svg"><path d="M14.06 19.5H9.94c-.167 1.618-.66 3.013-1.294 3.646A.501.501 0 0 0 9 24h6a.5.5 0 0 0 .354-.854c-.635-.633-1.127-2.028-1.293-3.646z" fill="#AB6116"/><path fill="#2D903C" d="M22 21l-4.5-6h3L16 9h2.5L12 1 5.5 9H8l-4.5 6h3L2 21z"/><path d="M15.462 23.441a.5.5 0 0 1-.462.309H9a.5.5 0 0 1-.462-.309c-.01-.025-.001-.051-.007-.077a.488.488 0 0 0 .007.327A.5.5 0 0 0 9 24h6a.5.5 0 0 0 .462-.309.488.488 0 0 0 .007-.327c-.006.026.003.052-.007.077z" opacity=".1"/><linearGradient gradientUnits="userSpaceOnUse" id="a" x1="10" x2="19.25" y1="7" y2="16.25"><stop offset="0" stop-opacity=".1"/><stop offset="1" stop-opacity="0"/></linearGradient><path fill="url(#a)" d="M20.5 15L16 9H8l6 6z"/><linearGradient gradientUnits="userSpaceOnUse" id="b" x1="11.5" x2="20.75" y1="13" y2="22.25"><stop offset="0" stop-opacity=".1"/><stop offset="1" stop-opacity="0"/></linearGradient><path fill="url(#b)" d="M22 21l-4.5-6h-8l6 6z"/><circle cx="11" cy="7.5" fill="#FBE99E" r="1"/><circle cx="14.5" cy="12.5" fill="#FDBA12" r="1"/><circle cx="8" cy="17.311" fill="#FFCE51" r="1"/><circle cx="16.5" cy="18.5" fill="#FBE99E" r="1"/><radialGradient cx="11" cy="7.5" gradientUnits="userSpaceOnUse" id="c" r="1"><stop offset="0" stop-color="#fff" stop-opacity=".2"/><stop offset="1" stop-color="#fff" stop-opacity="0"/></radialGradient><circle cx="11" cy="7.5" fill="url(#c)" r="1"/><radialGradient cx="14.5" cy="12.5" gradientUnits="userSpaceOnUse" id="d" r="1"><stop offset="0" stop-color="#fff" stop-opacity=".2"/><stop offset="1" stop-color="#fff" stop-opacity="0"/></radialGradient><circle cx="14.5" cy="12.5" fill="url(#d)" r="1"/><radialGradient cx="8" cy="17.311" gradientUnits="userSpaceOnUse" id="e" r="1"><stop offset="0" stop-color="#fff" stop-opacity=".2"/><stop offset="1" stop-color="#fff" stop-opacity="0"/></radialGradient><circle cx="8" cy="17.311" fill="url(#e)" r="1"/><radialGradient cx="16.5" cy="18.5" gradientUnits="userSpaceOnUse" id="f" r="1"><stop offset="0" stop-color="#fff" stop-opacity=".2"/><stop offset="1" stop-color="#fff" stop-opacity="0"/></radialGradient><circle cx="16.5" cy="18.5" fill="url(#f)" r="1"/><linearGradient gradientUnits="userSpaceOnUse" id="g" x1="11.722" x2="15.397" y1="20.135" y2="23.81"><stop offset="0" stop-opacity=".1"/><stop offset="1" stop-opacity="0"/></linearGradient><path d="M14.323 21h-3.466l2.994 3H15a.5.5 0 0 0 .354-.854c-.427-.425-.789-1.196-1.03-2.146z" fill="url(#g)"/><path fill="#FDB913" d="M15.5 2.5l-2.525-.525L12 0l-.975 1.975L8.5 2.5l2 1.5-.45 2L12 4.975 13.95 6l-.45-2z"/><path fill="#FFF" opacity=".2" d="M12 0v3l.975-1.025zm3.5 2.5L12 3l1.5 1zm-7 0l2.525-.525L12 3zm2 1.5L12 3l-1.95 3zm1.5.975V3l1.95 3z"/><linearGradient gradientUnits="userSpaceOnUse" id="h" x1="11.668" x2="17.392" y1="4.383" y2="10.108"><stop offset="0" stop-opacity=".1"/><stop offset="1" stop-opacity="0"/></linearGradient><path fill="url(#h)" d="M14.083 3.563L13.5 4l.45 2L12 4.975 10.05 6l3 3h5.45z"/><linearGradient gradientUnits="userSpaceOnUse" id="i" x1="5.168" x2="23.343" y1="9.646" y2="18.121"><stop offset="0" stop-color="#fff" stop-opacity=".2"/><stop offset="1" stop-color="#fff" stop-opacity="0"/></linearGradient><path d="M14.327 21H22l-4.5-6h3L16 9h2.5l-4.417-5.437L15.5 2.5l-2.525-.525L12 0l-.975 1.975L8.5 2.5l1.417 1.063L5.5 9H8l-4.5 6h3L2 21h7.673c-.242.949-.6 1.721-1.027 2.146A.501.501 0 0 0 9 24h6a.5.5 0 0 0 .354-.854c-.426-.425-.785-1.197-1.027-2.146z" fill="url(#i)"/></svg>