<svg height="48" viewBox="0 0 48 48" width="48" xmlns="http://www.w3.org/2000/svg"><path d="M15.046 22.682c-6.965 0-12.609 5.646-12.609 12.609 0 6.961 5.645 12.609 12.609 12.609s12.609-5.648 12.609-12.609c0-6.963-5.645-12.609-12.609-12.609zm2.207 13.099a1.962 1.962 0 1 1 0-3.926 1.964 1.964 0 0 1 0 3.926zm.197-5.724a1.962 1.962 0 1 1-.002-3.924 1.962 1.962 0 0 1 .002 3.924zm4.956 3.32a1.961 1.961 0 1 1 1.962-1.961 1.96 1.96 0 0 1-1.962 1.961zm23.157-3.682s0-.123-.014-.352a8.318 8.318 0 0 0-.143-1.225c-.28-1.908-1.077-5.664-3.264-11.71l.009-.004c-.267-.779-.588-1.728-.872-2.569-.005-.013-.014-.022-.019-.033l.005-.002c-.031-.093-.062-.18-.089-.271a7.503 7.503 0 0 1-.565-1.676l-.009-.027h.004c-.254-1.205-.276-2.798.694-4.312.019-.027.022-.049.04-.076a4.526 4.526 0 0 0 .967-2.778A4.559 4.559 0 0 0 37.747.1a4.562 4.562 0 0 0-4.56 4.56c0 1.167.454 2.222 1.176 3.027l-.009.009s1.507 2.227.183 5.383l.026.007-.913 2.549-.249.861c-.792 2.411-2.355 7.358-3.144 11.13-.115.42-.204.85-.247 1.297-.011.072-.028.15-.04.219a2.997 2.997 0 0 0-.033.529l-.005-.002.003.018c.004.205.024.398.064.574.018.232.062.453.104.676l-.021-.012.054.246.054.23.623 2.742 2.148 10.9.299 1.883s.015-.004.021-.01c.146.562.628.984 1.236.984h6.496c.605 0 1.091-.422 1.237-.984l.022.01.28-1.785 2.333-11.617.508-2.258c.066-.314.111-.633.138-.961l.005-.035-.005.002c.019-.19.032-.383.032-.577z" fill="#241F20"/></svg>