<?xml version="1.0" encoding="UTF-8"?>
<!DOCTYPE svg PUBLIC "-//W3C//DTD SVG 1.1//EN" "http://www.w3.org/Graphics/SVG/1.1/DTD/svg11.dtd">
<!-- Creator: CorelDRAW X8 -->
<svg xmlns="http://www.w3.org/2000/svg" xml:space="preserve" width="71px" height="100px" version="1.1" style="shape-rendering:geometricPrecision; text-rendering:geometricPrecision; image-rendering:optimizeQuality; fill-rule:evenodd; clip-rule:evenodd"
viewBox="0 0 71 100"
 xmlns:xlink="http://www.w3.org/1999/xlink">
 <defs>
  <style type="text/css">
   <![CDATA[
    .fil50 {fill:black;fill-rule:nonzero}
    .fil34 {fill:#1D4935;fill-opacity:0.701961}
    .fil14 {fill:#24523B;fill-opacity:0.701961}
    .fil9 {fill:#25261A;fill-opacity:0.701961}
    .fil22 {fill:#261D1B;fill-opacity:0.701961}
    .fil6 {fill:#27543C;fill-opacity:0.701961}
    .fil4 {fill:#2B634A;fill-opacity:0.701961}
    .fil1 {fill:#2C6B51;fill-opacity:0.701961}
    .fil11 {fill:#34664B;fill-opacity:0.701961}
    .fil5 {fill:#3D2655;fill-opacity:0.701961}
    .fil8 {fill:#43285D;fill-opacity:0.701961}
    .fil20 {fill:#472B68;fill-opacity:0.701961}
    .fil16 {fill:#4B2B72;fill-opacity:0.701961}
    .fil38 {fill:#595826;fill-opacity:0.701961}
    .fil41 {fill:#6B3323;fill-opacity:0.701961}
    .fil12 {fill:#6D2E22;fill-opacity:0.701961}
    .fil43 {fill:#6F8C83;fill-opacity:0.701961}
    .fil27 {fill:#727648;fill-opacity:0.701961}
    .fil49 {fill:#74A39D;fill-opacity:0.701961}
    .fil2 {fill:#75382A;fill-opacity:0.701961}
    .fil26 {fill:#8E8E4F;fill-opacity:0.701961}
    .fil21 {fill:#934333;fill-opacity:0.701961}
    .fil31 {fill:#936D4D;fill-opacity:0.701961}
    .fil37 {fill:#97A967;fill-opacity:0.701961}
    .fil10 {fill:#97AD6A;fill-opacity:0.701961}
    .fil3 {fill:#993D29;fill-opacity:0.701961}
    .fil15 {fill:#994735;fill-opacity:0.701961}
    .fil47 {fill:#997B6F;fill-opacity:0.701961}
    .fil19 {fill:#9B422C;fill-opacity:0.701961}
    .fil33 {fill:#A49633;fill-opacity:0.701961}
    .fil32 {fill:#ACAA54;fill-opacity:0.701961}
    .fil29 {fill:#AE7768;fill-opacity:0.701961}
    .fil17 {fill:#AECB86;fill-opacity:0.701961}
    .fil39 {fill:#AF9589;fill-opacity:0.701961}
    .fil25 {fill:#B18A74;fill-opacity:0.701961}
    .fil46 {fill:#B1B1A5;fill-opacity:0.701961}
    .fil24 {fill:#B4968A;fill-opacity:0.701961}
    .fil44 {fill:#CBAB95;fill-opacity:0.701961}
    .fil35 {fill:#CBB7AA;fill-opacity:0.701961}
    .fil48 {fill:#CBC991;fill-opacity:0.701961}
    .fil45 {fill:#D0A490;fill-opacity:0.701961}
    .fil7 {fill:#D1CCC5;fill-opacity:0.701961}
    .fil40 {fill:#D7C7B9;fill-opacity:0.701961}
    .fil18 {fill:#D8CEC3;fill-opacity:0.701961}
    .fil36 {fill:#D8D4CA;fill-opacity:0.701961}
    .fil13 {fill:#DDE1D6;fill-opacity:0.701961}
    .fil23 {fill:#E4DCD4;fill-opacity:0.701961}
    .fil42 {fill:#E5E3DA;fill-opacity:0.701961}
    .fil30 {fill:#E7D4C9;fill-opacity:0.701961}
    .fil28 {fill:#F2F1EC;fill-opacity:0.701961}
    .fil0 {fill:white;fill-rule:nonzero;fill-opacity:0.701961}
   ]]>
  </style>
   <clipPath id="id0" style="clip-rule:nonzero">
    <path d="M10 94l60 0 0 6 -70 0 0 -2 60 -92 -55 0 0 -6 66 0 0 2 -61 92z"/>
   </clipPath>
   <clipPath id="id1" style="clip-rule:nonzero">
    <path d="M10 94l60 0 0 6 -70 0 0 -2 60 -92 -55 0 0 -6 66 0 0 2 -61 92z"/>
   </clipPath>
 </defs>
 <g id="Слой_x0020_1">
  <metadata id="CorelCorpID_0Corel-Layer"/>
  <g style="clip-path:url(#id0)">
   <polygon class="fil0" points="0,0 71,0 71,100 0,100 "/>
  </g>
  <g style="clip-path:url(#id1)">
   <g id="_2391759337888">
    <path id="1" class="fil1" d="M11 22c13,7 23,22 12,24 -6,1 -7,-5 -7,-10 -1,-4 -4,-10 -5,-14zm2 -7c3,2 7,3 9,5 1,0 3,3 1,2 -5,-1 0,2 3,6 12,15 -12,-11 -13,-13zm-10 5l-1 0 -2 8 0 3 -5 5 0 3c6,0 4,-8 8,-10l2 5c3,5 6,7 7,12 2,8 5,9 11,15 21,21 5,-2 22,4 3,-4 -3,-5 -1,-12 -2,-5 -6,-21 -8,-25 -6,-11 -6,-13 -19,-17 -1,2 0,2 2,3 -11,-1 -7,-1 -16,6z"/>
    <path class="fil2" d="M63 121c-3,11 -6,12 -10,20l-3 12 0 1 2 7 1 0c1,-5 0,-9 1,-14 5,-6 10,-12 13,-20 1,-2 3,-19 4,-13 3,8 1,15 2,24 1,10 2,13 -1,23l6 0 3 -14c2,-8 12,-35 7,-41 -4,-4 -5,13 -5,14 -3,9 -3,-6 -3,-7 -2,3 -2,0 -3,2 -1,2 0,4 -3,6l-2 -21 -2 5c-4,-1 -3,-3 -5,-7l-3 -3c2,9 3,18 1,26z"/>
    <path class="fil3" d="M35 -37l0 13c1,4 2,9 5,12l0 -6 2 -1c-2,-8 -1,-4 1,-9l1 -2 1 2 1 1 6 11c5,4 8,10 10,16l0 0 3 0c1,7 3,4 3,10l4 2c3,5 3,5 4,11l1 1 1 -1 1 2c3,-1 3,-2 2,1l2 5 2 2c0,0 1,0 1,0 0,2 1,1 1,1 -1,-11 0,-5 -4,-13 0,-1 -3,-9 -3,-10l-1 -5c-7,-16 -5,6 -9,-7 -3,-9 -14,-7 -5,-16 -1,-5 -2,-14 -7,-15 -5,2 -2,9 -2,13l-4 -19 -16 -1c-2,1 -2,-3 -1,2z"/>
    <path class="fil4" d="M-5 40l0 0 -1 4 -3 0c1,11 3,7 6,15l1 4 1 4 1 0c13,-4 14,4 21,13 4,3 3,0 2,-3 -2,-5 1,-1 3,0 4,2 -2,-5 -2,-6 0,0 8,5 9,6l8 -7 4 -5c-17,-6 -1,17 -22,-4 -6,-6 -9,-7 -11,-15 -1,-5 -4,-7 -7,-12 -2,5 -3,9 -2,14l-8 -8z"/>
    <path class="fil5" d="M55 105l0 1c1,35 -26,35 -41,55l17 0c-3,-7 9,-13 15,-19 7,-8 7,-12 17,-21 2,-8 1,-17 -1,-26l-2 -4 -1 0 -3 0c3,3 6,18 3,21 -2,-3 1,-3 -4,-7z"/>
    <path class="fil6" d="M17 11c13,4 13,6 19,17 2,4 6,20 8,25 6,8 1,10 9,16l-1 -9 0 -1 -2 -5 0 -1 -2 -4c-1,0 -1,0 -1,-1l-4 -10 0 -1 0 -2 -2 -3 1 -1 -3 -4 -4 -7c-3,-4 -4,-4 -4,-10 -3,-4 -2,-5 -4,-10l-1 3c0,3 1,3 -1,6l-28 -16c-3,-4 -13,-9 -17,-6 2,4 15,9 19,12 10,5 10,4 18,12z"/>
    <path class="fil7" d="M66 91l-1 -1 1 1zm0 -7l1 3 -1 -3zm0 0l-1 -1 1 1zm-23 -49l0 2 0 1 4 10 1 1 2 4 0 1 2 5 0 1 1 9c4,6 1,5 7,12l2 0 -1 1 1 7 -2 2 5 1 1 -1c1,0 1,0 1,-2l0 -2 2 2 2 -1c-5,-5 -4,-19 -5,-25 -3,5 -2,6 -3,11 -8,-4 -3,-22 -3,-30l-3 0 -1 -4 -2 6c-1,-1 0,-2 -1,-3 -2,-3 0,0 -2,-4 0,0 -6,-4 -9,-7l1 3z"/>
    <path class="fil8" d="M30 116c4,-5 14,-3 16,-9 -4,1 -10,3 -14,3 -5,1 -8,-3 -4,-6 8,-6 9,9 13,-4l1 -8 -8 0 -10 0c-5,9 -13,5 -12,9 3,10 11,12 18,15z"/>
    <path class="fil9" d="M-17 -1c1,1 7,2 6,4 -1,3 2,2 4,4 5,2 4,4 8,6 3,2 4,2 2,7 9,-7 5,-7 16,-6 -2,-1 -3,-1 -2,-3 -8,-8 -8,-7 -18,-12 -4,-3 -17,-8 -19,-12l-11 -3c4,8 9,3 14,15z"/>
    <path class="fil10" d="M26 -27l0 5 1 16 0 6c2,5 1,6 4,10 -1,0 -5,-45 0,-34 3,6 4,36 4,44l4 7c0,-6 -4,-36 1,-37l0 -1 0 -1c-3,-3 -4,-8 -5,-12 -3,-4 -3,-10 -3,-14 -5,-4 -2,-6 -5,-10 -3,4 -1,16 -1,21z"/>
    <path class="fil11" d="M-3 -7l28 16c2,-3 1,-3 1,-6 -4,-5 -12,-6 -17,-12 -4,-2 -13,-6 -15,-9l-11 -4c-1,3 0,2 0,4 0,1 -1,0 -1,1 4,3 16,7 15,10z"/>
    <path class="fil5" d="M11 95l0 1 -1 3 -2 7c4,3 13,12 13,16 0,8 -8,15 -15,18l1 5c4,-4 10,-8 14,-13 8,-9 -1,-13 11,-14l1 0 0 -1 -3 -1c-7,-3 -15,-5 -18,-15 -1,-4 7,0 12,-9l-2 -1 -7 5 -4 -1z"/>
    <path class="fil12" d="M52 8c1,0 1,-1 0,1l6 6c3,3 7,11 9,15l0 1 1 1 5 9c3,4 10,13 10,17l1 3c4,3 7,8 8,12 4,3 3,8 7,6 -1,-4 -8,-11 -5,-15 1,-2 2,0 5,-1 4,0 3,-2 6,2 0,-3 1,-5 -2,-8l-3 2c-3,1 -4,2 -6,1l-5 1 -6 -9 0 0c-3,-3 -7,-11 -8,-15l-7 -10c-2,0 -2,0 -2,-1l-1 -4 -1 -1 -3 -6 -3 -3 -1 -2 -1 -1 -1 -1 -1 -3 -2 -1 0 -1 0 5z"/>
    <path class="fil13" d="M44 18l-2 1c-2,4 -1,8 0,12l-1 1 1 0c3,3 9,7 9,7 2,4 0,1 2,4 1,1 0,2 1,3l2 -6c-2,-6 -1,-9 -2,-14l-1 3 -1 -13c-2,-1 -3,2 -2,-3 -3,1 -3,0 -6,0l0 5z"/>
    <path class="fil14" d="M0 67c3,7 4,2 10,7l-1 5 3 1 1 1 1 3 1 2 -2 2 0 2 -1 4 11 -6c2,-5 0,-4 -2,-8 -7,-9 -8,-17 -21,-13z"/>
    <path class="fil15" d="M39 27l3 4c-1,-4 -2,-8 0,-12 0,-2 0,-1 2,-1l0 -5c6,-3 1,-3 6,-5l2 0 0 -5 -4 -5 0 1 1 2 0 1 -2 1 -1 0 -6 -13c-5,1 -1,31 -1,37z"/>
    <path class="fil16" d="M41 100c-4,13 -5,-2 -13,4 -4,3 -1,7 4,6 4,0 10,-2 14,-3l5 -2 0 3 4 -2 0 -1 0 -5c-4,-2 -9,-1 -14,0z"/>
    <path class="fil17" d="M31 10c0,6 1,6 4,10 0,-8 -1,-38 -4,-44 -5,-11 -1,34 0,34z"/>
    <path class="fil18" d="M43 -19l2 11 0 1 2 1 1 4 4 5 0 1 2 1 1 3c6,2 2,1 3,-1 -2,-2 -1,0 0,-2 -3,-2 -7,-7 -6,-11 4,0 5,2 6,5l4 2 0 -1 0 0c-3,-3 -9,-11 -11,-15 -8,-2 -3,-1 -8,-6l0 2z"/>
    <path class="fil19" d="M72 100l2 21c3,-2 2,-4 3,-6 1,-2 1,1 3,-2 1,-3 1,-12 0,-15 -1,-3 -1,-5 -4,-6 -2,3 0,2 -2,4 -1,3 -1,-1 -2,4z"/>
    <path class="fil20" d="M42 92l-1 8c5,-1 10,-2 14,0l0 5c5,4 2,4 4,7 3,-3 0,-18 -3,-21l-14 1z"/>
    <path class="fil21" d="M71 88l-2 1 -2 -2 0 2c2,4 2,6 -2,9 2,4 1,6 5,7l2 -5c1,-5 1,-1 2,-4 2,-2 0,-1 2,-4 3,1 3,3 4,6l3 -1 -3 -5c-2,-3 -6,-11 -9,-12l0 8z"/>
    <path class="fil22" d="M9 -9c5,6 13,7 17,12l1 -3 0 -6c-2,-6 -2,-6 -8,-6 -3,0 -9,0 -11,0l1 3z"/>
    <path class="fil23" d="M61 15l3 6 1 1 1 4 2 1 7 10 -1 -5 3 -1c-1,-1 -1,-1 -1,-2l-3 -7 -3 -8c-2,0 -2,1 -2,-1 -4,0 -4,-1 -7,2z"/>
    <path class="fil24" d="M52 16l1 13 1 -3c1,5 0,8 2,14l1 4 3 0 3 -7 -5 -1 -2 -5c0,-7 0,-9 2,-16l-6 -6c2,4 3,2 2,7l-2 0z"/>
    <path class="fil21" d="M56 31l2 1c4,0 3,-2 6,2l0 -3 3 -1c-2,-4 -6,-12 -9,-15 -2,7 -2,9 -2,16z"/>
    <path class="fil25" d="M59 3l3 1 1 5 1 2c-3,2 -3,2 -6,1l3 3c3,-3 3,-2 7,-2l0 -1 0 -2c0,-6 -2,-3 -3,-10l-3 0 0 1 -4 -2 1 4z"/>
    <polygon class="fil26" points="-1,87 -1,96 0,97 4,95 4,92 6,89 7,87 4,85 "/>
    <polygon class="fil27" points="2,102 3,105 0,105 0,108 0,109 4,107 8,108 8,106 10,99 6,99 5,101 "/>
    <path class="fil28" d="M5 82c4,2 5,2 6,6l1 2 1 0 0 -2 1 -4 -1 -3 -1 -1 -3 -1 -3 1 -1 2z"/>
    <path class="fil29" d="M62 0c-2,-6 -5,-12 -10,-16l-1 1c2,4 8,12 11,15z"/>
    <path class="fil29" d="M58 5l1 -2 -1 -4c-1,-3 -2,-5 -6,-5 -1,4 3,9 6,11z"/>
    <polygon class="fil30" points="47,3 49,1 48,-1 43,-9 40,-11 40,-10 46,3 "/>
    <path class="fil31" d="M66 91l-1 1 -5 -1 2 4 3 3c4,-3 4,-5 2,-9 0,2 0,2 -1,2z"/>
    <polygon class="fil32" points="4,95 6,99 10,99 11,96 7,92 4,92 "/>
    <polygon class="fil33" points="4,92 7,92 11,96 11,95 12,94 13,90 12,90 11,88 6,89 "/>
    <path class="fil25" d="M71 14l-1 0 3 8 3 1c-1,-6 -1,-6 -4,-11 0,3 1,2 -1,2z"/>
    <polygon class="fil34" points="12,94 11,95 15,96 22,91 23,88 "/>
    <polygon class="fil35" points="58,5 58,7 61,10 63,9 62,4 59,3 "/>
    <path class="fil36" d="M50 13c-1,5 0,2 2,3l2 0c1,-5 0,-3 -2,-7 -1,0 0,1 0,-1l-2 0 0 5z"/>
    <path class="fil37" d="M4 85l3 2 -1 2 5 -1c-1,-4 -2,-4 -6,-6l-1 3z"/>
    <polygon class="fil38" points="0,97 1,98 1,100 2,102 5,101 6,99 4,95 "/>
    <path class="fil36" d="M55 8l1 1 1 1 1 2c3,1 3,1 6,-1l-1 -2 -2 1 -3 -3c-1,2 3,3 -3,1z"/>
    <path class="fil39" d="M44 13c3,0 3,1 6,0l0 -5c-5,2 0,2 -6,5z"/>
    <polygon class="fil40" points="76,29 78,26 77,24 76,23 73,22 "/>
    <path class="fil36" d="M68 12l3 2c2,0 1,1 1,-2l-4 -2 0 2z"/>
    <path class="fil41" d="M48 -1l0 -1 -1 -4 -2 -1 0 -1c-1,-1 0,0 -2,-1l5 8z"/>
    <polygon class="fil42" points="-2,101 -2,102 1,100 1,98 -1,98 "/>
    <polygon class="fil43" points="13,88 15,86 14,84 "/>
    <path class="fil44" d="M70 14l1 0 -3 -2 0 1c0,2 0,1 2,1z"/>
    <path class="fil25" d="M52 9c1,-2 1,-1 0,-1 0,2 -1,1 0,1z"/>
    <polygon class="fil45" points="47,3 49,2 49,1 "/>
    <polygon class="fil46" points="61,82 62,81 60,81 "/>
    <path class="fil29" d="M58 7l0 -2c-1,2 -2,0 0,2z"/>
    <polygon class="fil43" points="43,35 42,32 41,32 "/>
    <path class="fil25" d="M44 18c-2,0 -2,-1 -2,1l2 -1z"/>
    <path class="fil25" d="M68 32l-1 -1c0,1 -1,1 1,1z"/>
    <path class="fil43" d="M48 49l-1 -1c0,1 0,1 1,1z"/>
    <path class="fil47" d="M68 27l-2 -1c0,1 0,1 2,1z"/>
    <polygon class="fil43" points="52,60 52,59 "/>
    <polygon class="fil25" points="65,22 64,21 "/>
    <polygon class="fil39" points="66,91 65,90 "/>
    <polygon class="fil48" points="12,90 11,88 "/>
    <polygon class="fil29" points="67,87 66,84 "/>
    <polygon class="fil43" points="43,38 43,37 "/>
    <polygon class="fil25" points="66,84 65,83 "/>
    <polygon class="fil25" points="54,5 52,4 "/>
    <polygon class="fil49" points="13,81 12,80 "/>
    <polygon class="fil43" points="50,54 50,53 "/>
    <polygon class="fil47" points="57,10 56,9 "/>
   </g>
  </g>
  <polygon class="fil50" points="11,39 14,39 14,41 9,41 9,39 12,35 9,35 9,34 14,34 14,35 "/>
  <polygon id="1" class="fil50" points="15,41 15,34 19,34 19,35 17,35 17,36 19,36 19,38 17,38 17,39 20,39 20,41 "/>
  <path id="2" class="fil50" d="M25 39c0,0 0,0 0,1 0,0 -1,0 -1,1 -1,0 -1,0 -2,0 0,0 -1,0 -2,-1l0 -1c1,0 1,0 1,0 1,0 1,0 1,0 0,0 1,0 1,0 0,0 0,0 0,0 0,0 0,0 0,-1 0,0 0,0 0,0 -1,0 -1,0 -1,0 -1,0 -2,-1 -2,-2 0,-1 0,-1 1,-2 0,0 1,0 2,0 0,0 0,0 1,0 0,0 0,0 0,0 0,0 1,0 1,0l0 2c-1,-1 -1,-1 -2,-1 0,0 0,0 0,0 -1,0 -1,1 -1,1 0,0 0,0 1,0 0,0 0,0 0,0 1,1 1,1 2,1 0,1 0,1 0,2z"/>
  <polygon id="3" class="fil50" points="29,35 29,41 27,41 27,35 26,35 26,34 31,34 31,35 "/>
  <polygon id="4" class="fil50" points="9,53 9,47 11,47 11,52 13,52 13,53 "/>
  <path id="5" class="fil50" d="M18 53l0 -1 -2 0 0 1 -2 0 2 -6 2 0 3 6 -3 0zm-1 -5l0 0c0,0 0,0 0,0 0,1 0,1 -1,3l2 0 -1 -2c0,0 0,-1 0,-1z"/>
  <polygon id="6" class="fil50" points="26,52 29,52 29,53 24,53 24,52 27,48 24,48 24,47 29,47 29,48 "/>
  <polygon id="7" class="fil50" points="30,53 30,47 35,47 35,48 32,48 32,49 34,49 34,51 32,51 32,52 35,52 35,53 "/>
  <path id="8" class="fil50" d="M40 51c0,1 0,1 0,2 0,0 -1,0 -1,0 0,0 -1,1 -2,1 0,0 -1,-1 -2,-1l0 -2c1,0 1,1 1,1 1,0 1,0 1,0 1,0 1,0 1,0 0,0 0,0 0,0 0,-1 0,-1 0,-1 0,0 0,0 0,0 0,0 -1,0 -1,0 -1,-1 -2,-1 -2,-2 0,-1 1,-2 1,-2 1,0 1,0 2,0 0,0 1,0 1,0 0,0 0,0 0,0 0,0 1,0 1,0l0 1c-1,0 -1,0 -2,0 0,0 0,0 0,0 0,0 0,0 0,0 0,1 0,1 0,1 0,0 0,0 0,0 1,0 2,1 2,1 0,0 0,1 0,1z"/>
  <polygon id="9" class="fil50" points="45,48 45,53 43,53 43,48 41,48 41,47 47,47 47,48 "/>
  <polygon id="10" class="fil50" points="47,53 47,47 52,47 52,48 49,48 49,49 51,49 51,51 49,51 49,52 52,52 52,53 "/>
  <polygon id="11" class="fil50" points="9,66 9,59 11,59 11,65 13,65 13,66 "/>
  <path id="12" class="fil50" d="M18 66l0 -1 -2 0 0 1 -2 0 2 -7 2 0 3 7 -3 0zm-1 -5l0 0c0,0 0,0 0,0 0,0 0,1 -1,2l2 0 -1 -1c0,-1 0,-1 0,-1z"/>
  <path id="13" class="fil50" d="M29 64c0,1 0,1 -1,1 0,1 0,1 -1,1 0,0 0,0 -1,0 -1,0 -1,0 -2,0l0 -2c0,0 1,0 1,1 0,0 1,0 1,0 0,0 0,0 0,0 0,0 1,-1 1,-1 0,0 0,0 -1,0 0,0 0,0 0,0 0,0 0,0 -1,-1 -1,0 -1,-1 -1,-2 0,0 0,-1 1,-1 0,-1 1,-1 2,-1 0,0 0,0 0,0 0,0 1,0 1,0 0,0 0,0 0,0l0 2c0,0 -1,0 -1,0 0,0 -1,0 -1,0 0,0 0,0 0,0 0,0 0,0 0,1 0,0 1,0 1,0 1,0 1,1 1,1 1,0 1,1 1,1z"/>
  <path id="14" class="fil50" d="M35 66c-1,0 -2,0 -2,0 -1,0 -2,0 -2,0 -1,0 -1,-1 -1,-1 -1,-1 -1,-1 -1,-2 0,-1 0,-1 1,-2 0,-1 0,-1 1,-1 1,-1 1,-1 2,-1 1,0 1,0 2,0l0 2c0,0 -1,0 -1,0 0,0 0,0 -1,0 0,0 -1,0 -1,0 0,1 -1,1 -1,2 0,0 1,1 1,1 0,0 1,0 1,0 1,0 1,0 2,0l0 2z"/>
  <path id="15" class="fil50" d="M42 63c0,0 0,1 0,2 -1,0 -1,0 -1,1 -1,0 -2,0 -2,0 -1,0 -1,0 -2,0 0,0 -1,-1 -1,-1 0,-1 -1,-2 -1,-2 0,-1 1,-1 1,-2 0,-1 1,-1 1,-1 1,-1 1,-1 2,-1 1,0 1,0 2,1 0,0 0,0 1,1 0,0 0,1 0,2zm-2 0c0,-1 0,-1 0,-2 -1,0 -1,0 -1,0 -1,0 -1,0 -1,0 0,1 0,1 0,2 0,0 0,1 0,1 0,0 0,0 1,0 0,0 0,0 0,0 1,0 1,0 1,0 0,-1 0,-1 0,-1z"/>
  <path id="16" class="fil50" d="M47 66l-1 -1c0,-1 0,-1 0,-1 0,0 -1,0 -1,0l0 0 0 2 -2 0 0 -7 3 0c1,0 2,1 2,1 0,0 1,1 1,1 0,1 0,1 -1,1 0,1 0,1 -1,1l0 0c0,0 1,0 1,1 0,0 0,0 0,0l1 2 -2 0zm-1 -5c0,0 0,0 0,0 0,0 0,0 0,0l-1 0 0 1 1 0c0,0 0,0 0,0 0,0 0,0 0,-1z"/>
  <polygon id="17" class="fil50" points="52,65 55,65 55,66 49,66 49,65 52,61 50,61 50,59 55,59 55,61 "/>
  <path id="18" class="fil50" d="M60 66l0 -1 -2 0 0 1 -3 0 3 -7 2 0 2 7 -2 0zm-1 -5l0 0c0,0 0,0 0,0 0,0 0,1 -1,2l2 0 -1 -1c0,-1 0,-1 0,-1z"/>
 </g>
</svg>
