<svg viewBox="0 0 24 24" xmlns="http://www.w3.org/2000/svg"><title/><g fill="#303c42"><path d="M8.25 13.88a.5.5 0 0 0 0-.65 5.711 5.711 0 0 1-1-2.17.5.5 0 0 0-.76-.29l-1.71 1.15a.51.51 0 0 1-.69-.14.5.5 0 0 1 .14-.69l1.3-.87a.5.5 0 0 0-.12-.89L4.34 9A.5.5 0 0 1 4 8.34a.51.51 0 0 1 .631-.349L4.66 8l1.75.58a.5.5 0 0 0 .66-.43V7.6a.5.5 0 0 0-.49-.58C4 7 2.32 6.53 2 5.66a.533.533 0 0 1 1-.37.508.508 0 0 0 .16.19C3.84 6 6.39 6 7.24 6a.5.5 0 0 0 .45-.28c.189-.395.428-.765.71-1.1a.5.5 0 0 0 0-.68A6.223 6.223 0 0 0 4 2C1.25 2 0 3.81 0 5.5c.042.898.274 1.778.68 2.58.151.289.259.599.32.92a3.329 3.329 0 0 1-.32.92A6.374 6.374 0 0 0 0 12.5C0 14.19 1.25 16 4 16a5.669 5.669 0 0 0 4.25-2.12zM23 9c.061-.321.169-.631.32-.92A6.374 6.374 0 0 0 24 5.5C24 3.81 22.75 2 20 2a5.611 5.611 0 0 0-4.22 2.17.501.501 0 0 0 0 .64c.48.639.82 1.371 1 2.15a.5.5 0 0 0 .76.3l1.77-1.17a.51.51 0 0 1 .69.14.5.5 0 0 1-.14.69l-1.31.87a.5.5 0 0 0 .12.89L19.7 9a.523.523 0 0 1-.31 1l-1.78-.6a.49.49 0 0 0-.43.06.503.503 0 0 0-.22.37c0 .19 0 .38-.06.56a.5.5 0 0 0 .49.58c2.66 0 4.29.5 4.59 1.37a.5.5 0 0 1-.305.638l-.005.002a.51.51 0 0 1-.61-.26.508.508 0 0 0-.16-.19C20.2 12 18 12 17 12h-.26a.5.5 0 0 0-.44.28c-.203.42-.462.81-.77 1.16a.5.5 0 0 0 0 .68A6 6 0 0 0 20 16c2.75 0 4-1.81 4-3.5a6.374 6.374 0 0 0-.68-2.58A3.329 3.329 0 0 1 23 9zm-4.84 7.76a7.147 7.147 0 0 1-3.3-1.94l-.12-.15a.501.501 0 0 0-.62-.15c-.43.206-.888.348-1.36.42a.5.5 0 0 0-.418.571l.008.039c.392 1.977.609 3.985.65 6 .004.219.15.409.36.47h.14a.5.5 0 0 0 .42-.22l1.76-2.65a9.55 9.55 0 0 1 2.47 1.72.5.5 0 0 0 .85-.37 12.997 12.997 0 0 0-.49-3.39.502.502 0 0 0-.35-.35zm-6.92-1.83a4.779 4.779 0 0 1-1.6-.54.56.56 0 0 0-.66.16 7.424 7.424 0 0 1-3.1 2.14.502.502 0 0 0-.32.33A12.527 12.527 0 0 0 5 20.5a.5.5 0 0 0 .85.35 9.55 9.55 0 0 1 2.47-1.72l1.76 2.65a.5.5 0 0 0 .42.22h.14a.499.499 0 0 0 .36-.47c.041-2.015.258-4.023.65-6a.5.5 0 0 0-.371-.602l-.039-.008v.01z"/><path d="M16 9c0-3.69-2.15-5-4-5S8 5.31 8 9s2.15 5 4 5 4-1.31 4-5z"/></g></svg>