<svg height="32" viewBox="0 0 32 32" width="32" xmlns="http://www.w3.org/2000/svg"><path d="M32.001 7.001a6.958 6.958 0 0 1-1.94 4.817A15.033 15.033 0 0 0 19.698 2.48c1.283-1.507 3.17-2.481 5.305-2.481a7 7 0 0 1 6.998 7.002zm-19.698-4.52C11.02.975 9.133.001 6.999.001a7 7 0 0 0-7 7c0 1.871.745 3.563 1.941 4.818a15.033 15.033 0 0 1 10.363-9.338zm16.698 14.52c0 3.158-1.127 6.051-3 8.305v3.695c0 1.655-1.345 3-3 3a2.993 2.993 0 0 1-2.966-2.646 12.935 12.935 0 0 1-8.069 0 2.992 2.992 0 0 1-2.965 2.646c-1.656 0-3-1.345-3-3v-3.695a12.951 12.951 0 0 1-3-8.305c0-7.182 5.82-13 13-13 7.179 0 13 5.819 13 13zm-2 0c0-6.066-4.937-11-11-11-6.065 0-11 4.934-11 11 0 6.063 4.935 11 11 11 6.063 0 11-4.936 11-11zm-10-9h-2v9c0 .176.046.348.134.5l4.001 6.928 1.729-1-3.864-6.695V8.001z"/></svg>