<svg height="24" viewBox="0 0 24 24" width="24" xmlns="http://www.w3.org/2000/svg"><path d="M23.2 3H12.9L.5 15.3c-.4.4-.3.9.1 1.3l7.1 7.1c.4.4 1 .4 1.4 0l.6-.7.7.7c.4.4.9.4 1.3 0L24 11.3V3.8c0-.5-.2-.8-.8-.8zM8.3 23l-7.1-7.1L13.2 4h1.4L3.4 15.2c-.4.4-.4 1 0 1.4L9 22.3l-.7.7zM22 10.5L11 21.6 5.4 16 16.6 5H22v5.5z"/><path d="M18 11c1.1 0 2-.9 2-2s-.9-2-2-2-2 .9-2 2 .9 2 2 2zm0-3c.6 0 1 .4 1 1s-.4 1-1 1-1-.4-1-1 .4-1 1-1zm-6.803 11.329l-3.535-3.536.707-.707 3.535 3.535zm1.434-1.415L9.096 14.38l.707-.707 3.535 3.535z"/></svg>