<svg viewBox="0 0 24 24" xmlns="http://www.w3.org/2000/svg"><title/><path d="M22.485 3h-3.32a2.158 2.158 0 0 0-.31-1.62 1.108 1.108 0 0 0-.87-.38 8 8 0 0 0-4.23 2h-3.42a8.116 8.116 0 0 0-4.35-2 1.111 1.111 0 0 0-.88.38 2.16 2.16 0 0 0-.3 1.62h-3.32a.5.5 0 0 0-.5.5v4a.5.5 0 0 0 .5.5h6.79l-.54 1h-5.25a.5.5 0 0 0-.5.5v13a.5.5 0 0 0 .5.5h8a.5.5 0 0 0 .5-.5V9.78l1-2 1 2.62v12.1a.5.5 0 0 0 .5.5h8a.5.5 0 0 0 .5-.5v-13a.5.5 0 0 0-.5-.5h-5.57l-.4-1h7a.5.5 0 0 0 .5-.5v-4a.5.5 0 0 0-.499-.501L22.485 3zm-7.38 6.68l-.48-.16a.5.5 0 0 0-.63.32l-.07.2-1.27-3.2c.227-.085.437-.21.62-.37l.68.33.34.85.81 2.03zm-5.43.51l-.27-.45a.5.5 0 0 0-.59-.22l-.3.1 1.47-2.73.73-.33c.157.126.333.227.52.3l-1.56 3.33zM12.985 5a1 1 0 1 1-2 0 1 1 0 0 1 2 0zm5.12-3c.16.19.08.9 0 1.39v.16c0 .18-.05.35-.07.51a3.336 3.336 0 0 0 0 .4v.32c0 .57 0 1.75-.31 2.1s-1.85-.29-3.16-.88l-.69-.32a1.925 1.925 0 0 0 0-1.42C15.195 3 16.985 2 17.985 2a.156.156 0 0 1 .12 0zM5.865 2a.156.156 0 0 1 .12 0 7.8 7.8 0 0 1 4.18 2.18 2.001 2.001 0 0 0 0 1.56c-1.46.65-3.59 1.47-3.88 1.18s-.3-1.53-.3-2.1V4.5a3.336 3.336 0 0 0 0-.4c0-.16 0-.33-.07-.51v-.16c-.13-.51-.21-1.21-.05-1.43z" fill="#303c42"/></svg>