<svg viewBox="0 0 24 24" xmlns="http://www.w3.org/2000/svg"><path d="M20.355 17.852C19.783 16.998 19 15.83 19 12.5V11c0-3.165-2.112-5.842-5-6.705h-4C7.113 5.158 5 7.835 5 11v1.5c0 3.329-.783 4.498-1.355 5.352-.332.495-.645.962-.645 1.648 0 1.63 3.398 2.202 6.153 2.4a2.977 2.977 0 0 0 5.694 0c2.755-.198 6.153-.77 6.153-2.4 0-.686-.313-1.153-.645-1.648z" fill="#FDB913"/><linearGradient gradientUnits="userSpaceOnUse" id="a" x1="10.618" x2="13.065" y1="20.761" y2="23.208"><stop offset="0" stop-opacity=".1"/><stop offset="1" stop-opacity="0"/></linearGradient><path d="M12 22c-.628 0-1.68-.018-2.847-.1a2.977 2.977 0 0 0 5.694 0c-1.166.082-2.22.1-2.847.1z" fill="url(#a)"/><path d="M12 21.75c-2.081 0-8.803-.18-8.994-2.406-.004.053-.006.1-.006.156 0 2.32 6.889 2.5 9 2.5s9-.18 9-2.5c0-.056-.002-.103-.006-.156-.19 2.227-6.913 2.406-8.994 2.406z" opacity=".05"/><path d="M12 4.25c3.86 0 7 3.14 7 7V11c0-3.86-3.14-7-7-7s-7 3.14-7 7v.25c0-3.86 3.14-7 7-7z" fill="#FFF" opacity=".2"/><path d="M11.166 2.724C9.613 1.171 7.392 0 6 0c-.456 0-.728.205-.876.376-.484.563-.338 1.537-.208 2.396.042.283.084.541.084.728l-.004.304c-.018.864-.045 2.17.59 2.819.243.247.558.377.914.377 1.267 0 4.243-1.434 4.579-1.598.248-.12.282-2.483.087-2.678z" fill="#EE3124"/><path fill="#EE3124" d="M12 7l-1 3-1-2-2 .5L9.5 5H12z"/><path d="M11.079 5.152C10.743 5.316 7.767 6.75 6.5 6.75a1.25 1.25 0 0 1-.914-.377c-.511-.522-.592-1.468-.595-2.27-.01.845.03 1.942.595 2.52.243.247.558.377.914.377 1.267 0 4.243-1.434 4.579-1.598.155-.076.227-1.036.21-1.788-.002.7-.071 1.47-.21 1.538z" opacity=".1"/><path d="M5.124.626C5.272.455 5.544.25 6 .25c1.392 0 3.613 1.17 5.166 2.724.073.073.113.445.123.89.002-.548-.037-1.054-.123-1.14C9.613 1.171 7.392 0 6 0c-.456 0-.728.205-.876.376-.278.323-.345.782-.33 1.276.015-.397.1-.758.33-1.026z" fill="#FFF" opacity=".2"/><path fill="#EE3124" d="M12 7l1 3 1-2 2 .5L14.5 5H12z"/><path opacity=".05" d="M14 8l-1.5-3.5-.5 1V7l1 3z"/><path d="M12.834 2.724C14.387 1.171 16.608 0 18 0c.456 0 .728.205.876.376.484.563.338 1.537.208 2.396-.042.283-.084.541-.084.728l.004.304c.018.864.045 2.17-.59 2.819A1.25 1.25 0 0 1 17.5 7c-1.267 0-4.243-1.434-4.579-1.598-.248-.12-.282-2.483-.087-2.678z" fill="#EE3124"/><path d="M12.921 5.152c.336.164 3.312 1.598 4.579 1.598.356 0 .671-.13.914-.377.511-.522.592-1.468.595-2.27.01.845-.03 1.942-.595 2.52A1.25 1.25 0 0 1 17.5 7c-1.267 0-4.243-1.434-4.579-1.598-.155-.076-.227-1.036-.21-1.788.002.7.071 1.47.21 1.538z" opacity=".1"/><path d="M18.876.626C18.728.455 18.456.25 18 .25c-1.392 0-3.613 1.17-5.166 2.724-.073.073-.113.445-.123.89-.002-.548.037-1.054.123-1.14C14.387 1.171 16.608 0 18 0c.456 0 .728.205.876.376.278.323.345.782.33 1.276-.015-.397-.1-.758-.33-1.026z" fill="#FFF" opacity=".2"/><path opacity=".05" d="M10 8l1.5-3.5.5 1V7l-1 3z"/><circle cx="12" cy="4" fill="#EF3C2F" r="2"/><path d="M13.237 5.237c-.75.75-1.946.771-2.73.08.027.032.049.067.079.097.78.78 2.048.78 2.828 0 .78-.78.78-2.048 0-2.828-.03-.03-.065-.052-.097-.08.691.785.67 1.982-.08 2.731z" opacity=".1"/><circle cx="11.218" cy="3" fill="#FFF" opacity=".2" r=".5"/><linearGradient gradientUnits="userSpaceOnUse" id="b" x1="9.141" x2="22.995" y1="4.128" y2="17.983"><stop offset="0" stop-opacity=".1"/><stop offset="1" stop-opacity="0"/></linearGradient><path d="M20.355 17.852C19.783 16.998 19 15.83 19 12.5V11c0-1.507-.49-2.895-1.303-4.038-.067.01-.127.038-.197.038-.586 0-1.536-.307-2.423-.653L16 8.5 14 8l-1 2-1-3-1 3-1-2-2 .5.923-2.153C8.036 6.693 7.086 7 6.5 7c-.065 0-.121-.027-.183-.035l-.02.007-.013.021 13.78 13.78c.576-.33.936-.745.936-1.273 0-.686-.313-1.153-.645-1.648z" fill="url(#b)"/><linearGradient gradientUnits="userSpaceOnUse" id="c" x1="2.317" x2="22.816" y1="6.294" y2="15.853"><stop offset="0" stop-color="#fff" stop-opacity=".2"/><stop offset="1" stop-color="#fff" stop-opacity="0"/></linearGradient><path d="M20.355 17.852C19.783 16.998 19 15.83 19 12.5V11c0-1.507-.49-2.895-1.303-4.038.272-.04.522-.141.717-.339.635-.649.608-1.955.59-2.82L19 3.5c0-.187.042-.445.084-.728.13-.859.276-1.833-.208-2.396C18.728.205 18.456 0 18 0c-1.292 0-3.29 1.013-4.813 2.399C12.854 2.152 12.446 2 12 2s-.854.152-1.187.399C9.29 1.013 7.292 0 6 0c-.456 0-.728.205-.876.376-.484.563-.338 1.537-.208 2.396.042.283.084.541.084.728l-.004.304c-.018.864-.045 2.17.59 2.819.195.198.445.298.717.34A6.938 6.938 0 0 0 5 11v1.5c0 3.329-.783 4.498-1.355 5.352-.332.495-.645.962-.645 1.648 0 1.63 3.398 2.202 6.153 2.4a2.977 2.977 0 0 0 5.694 0c2.755-.198 6.153-.77 6.153-2.4 0-.686-.313-1.153-.645-1.648z" fill="url(#c)"/></svg>