<svg viewBox="0 0 500 500" xmlns="http://www.w3.org/2000/svg"><path fill="#9dd2d8" d="M500 250l-26.784 29.409 18.32 35.309-33.487 21.454 8.483 38.858-37.913 12.025-1.841 39.723-39.734 1.841-12.024 37.924-38.859-8.494-21.454 33.498-35.298-18.321L250 500l-29.419-26.774-35.299 18.321-21.464-33.498-38.859 8.494-12.014-37.924-39.723-1.841-1.851-39.734-37.913-12.023 8.483-38.849-33.488-21.454 18.321-35.309L0 250l26.774-29.409-18.321-35.309 33.488-21.453-8.483-38.859 37.913-12.014 1.851-39.734 39.734-1.841 12.014-37.913 38.859 8.484 21.453-33.489 35.299 18.321L250 0l29.409 26.784 35.309-18.321 21.454 33.499 38.858-8.494 12.014 37.913 39.734 1.851 1.841 39.734 37.913 12.014-8.483 38.859 33.487 21.443-18.32 35.309z"/><path d="M149.984 254.146v106.501c0 3.596 2.95 6.541 6.561 6.541h186.931c3.591 0 6.541-2.945 6.541-6.541V254.146H149.984zm206.309-16.18c0 3.398-2.787 6.19-6.186 6.19H149.902c-3.397 0-6.195-2.792-6.195-6.19V198.08c0-3.408 2.798-6.195 6.195-6.195h200.205c3.398 0 6.186 2.788 6.186 6.195v39.886z" fill="#4d4d4d"/><path fill="#fc6e51" d="M230.743 254.146h38.514v113.042h-38.514zm0-62.262h38.514v52.271h-38.514z"/><g fill="#f4f8f8"><path d="M316.487 152.191c5.819-.509 10.671.681 14.507 2.93-3.652-6.755-11.19-11.684-22.024-10.748-27.292 2.365-51.574 38.458-51.574 38.458s4.842.9 11.963 1.841c8.229-10.351 26.855-30.736 47.128-32.481z"/><path d="M330.994 155.121c5.533 10.274 2.095 24.79-12.432 29.479-12.451 4.019-35.237 1.938-49.204.071l-2.849 3.586s27.069 9.517 51.941 7.121c20.102-1.947 29.847-28.6 12.544-40.257z"/></g><g fill="#f4f8f8"><path d="M183.512 152.191c-5.808-.509-10.671.681-14.496 2.93 3.652-6.755 11.189-11.684 22.023-10.748 27.283 2.365 51.585 38.458 51.585 38.458s-4.853.9-11.973 1.841c-8.239-10.351-26.855-30.736-47.139-32.481z"/><path d="M169.017 155.121c-5.534 10.274-2.106 24.79 12.431 29.479 12.451 4.019 35.238 1.938 49.205.071l2.838 3.586s-27.059 9.517-51.941 7.121c-20.092-1.947-29.847-28.6-12.533-40.257z"/></g><path d="M255.157 177.694s6.186-37.161 40.345-44.881l-5.666 5.946 10.6 2.218s-26.388 5.737-36.52 36.499l-8.759.218zm-10.447 0s-6.164-37.161-40.324-44.881l5.646 5.946-10.59 2.218s26.398 5.737 36.52 36.499l8.748.218z" fill="#f4f8f8"/><path d="M272.593 180.98c0-3.998-3.265-7.273-7.263-7.273h-30.66c-3.987 0-7.263 3.275-7.263 7.273v3.738c0 3.998 3.276 7.273 7.263 7.273h30.66c3.998 0 7.263-3.275 7.263-7.273v-3.738zm-9.308-13.739c0-2.339-1.923-4.267-4.272-4.267h-18.016c-2.339 0-4.273 1.928-4.273 4.267v2.203c0 2.339 1.933 4.262 4.273 4.262h18.016c2.35 0 4.272-1.923 4.272-4.262v-2.203z" fill="#f4f8f8"/></svg>