<svg viewBox="0 0 48 48" xmlns="http://www.w3.org/2000/svg"><path d="M35.061 21.125c1.074 0 1.769.768 1.769 1.957 0 .497 0 1.527-.712 1.922.158.324.152.745.146 1.185l-.003.282c0 .924-.41 1.638-1.056 1.935.162.33.157.76.152 1.209v.349c.005.547-.2 1.059-.577 1.44a1.938 1.938 0 0 1-.483.357c.327.461.34 1.136.347 1.468a1.99 1.99 0 0 1-.577 1.44 2.07 2.07 0 0 1-1.468.617l-4.803-.001a.354.354 0 0 1-.032.001h-6.3a2.25 2.25 0 0 0-.17.009 3.36 3.36 0 0 1-.228.01c-.105 0-.215-.01-.327-.041-.195-.056-.367-.167-.519-.265l-.107-.068c-.23-.142-.453-.292-.676-.443l-.182-.123a.716.716 0 0 0-.401-.12h-.627V23.66l.689-.433c.33-.208.538-.566.758-.945l.993-1.674c.678-1.14 1.357-2.279 2.039-3.416.019-.032.043-.072.047-.088a.548.548 0 0 0 .003-.09l-.003-3.687c0-.476.4-.856.794-1.164a2.074 2.074 0 0 1 2.02-.321c.56.202 1.257.56 1.408 1.116.184.682.369 1.365.54 2.052l.073.283c.111.43.226.873.273 1.327.068.658-.6 3.324-.996 4.517l8.196-.012zm-22.206 1.521c-.929 0-1.685.756-1.685 1.684v10.275c0 .928.756 1.684 1.685 1.684h3.687c.368 0 .707-.122.984-.324V22.972a1.658 1.658 0 0 0-.984-.326h-3.687zm.35 9.1v-.803a.35.35 0 1 1 .7 0v.803a.35.35 0 1 1-.7 0zm.7-1.951a.35.35 0 1 1-.7 0V24.75a.35.35 0 1 1 .7 0v5.044z" fill="#303030"/></svg>