<svg height="128" viewBox="0 0 128 128" width="128" xmlns="http://www.w3.org/2000/svg"><path d="M100.86 61.414c.353-4.985.673-11.769.753-16.231.007-.409.019-2.633.015-3.031-.009-.996-.034 1.862-.076.913-.067-1.519-.335-6.778-.509-8.155-.542-4.285-.554-6.785-5.173-11.035s-14.305-6.236-16.198-6.711a24.17 24.17 0 0 0-.623-.148c-4.51-1.007-7.68-.368-7.68-.368l-.005-.004-.012-.011-.007-.005-.014-.012-.015-.012-.015-.011-.024-.017-.018-.012-.034-.023a3.503 3.503 0 0 0-.311-.177l-.008-.004-.101-.05-.017-.008-.114-.053-.017-.008a10.669 10.669 0 0 0-1.127-.421l-.002-.001c-.08-.026-.164-.051-.251-.078l-.013-.004a13.693 13.693 0 0 0-.272-.079l-.006-.002a28.414 28.414 0 0 0-2.152-.512l-.05-.01-.407-.079a45.358 45.358 0 0 0-.5-.092l-.043-.008c-.65-.115-1.373-.23-2.178-.342l-.025-.004a84.622 84.622 0 0 0-3.396-.397c-9.659-.947-21.061 6.496-24.683 8.797s-4.418 4.881-4.418 4.881-2.35.476-4.765 3.859c-1.832 2.567-.232 24.392.647 34.784l-.646 26.468.002.03-.002.077c-.057 2.355 1.623 5.088 3.735 6.133l15.537 7.708c2.112 1.045 5.768 1.976 8.124 1.976h20.468c2.356 0 6.012-.929 8.124-1.973l15.537-7.732c2.112-1.045 3.793-3.841 3.735-6.196l-.77-31.61zm-5.707 32.468l-15.469 7.698c-1.341.663-4.098 1.345-5.45 1.345H53.766c-1.351 0-4.108-.683-5.464-1.354l-15.531-7.706c-.1-.084-.344-.473-.401-.705l.98-40.266c.117-.366.234-.734.323-1.124 1.053-4.569 1.577-10.369 1.577-10.369s3.974-.561 10.332 1.662c6.357 2.223 11.64 5.816 11.64 5.816s-1.701 3.523 0 4.788c1.058.787 4.25.985 6.737 1.609l.128.033c.071.018.142.037.212.057l.135.038.199.059.128.04c.074.023.146.048.217.072l.094.032c.099.035.196.072.29.11l.079.034c.068.028.135.057.2.087l.098.047c.057.028.113.056.168.085l.093.05c.057.032.112.065.166.099l.07.043c.074.049.145.099.211.151l.034.029c.054.044.105.088.153.134l.057.058c.038.039.074.078.107.119.018.022.036.043.052.066.032.042.062.086.089.131a1.25 1.25 0 0 1 .135.263c.033.085.054.171.069.258.005.028.006.057.009.085.006.06.01.12.009.181-.001.033-.004.067-.007.101a1.792 1.792 0 0 1-.024.175c-.007.034-.013.069-.022.103a1.99 1.99 0 0 1-.057.187c-.011.031-.02.061-.032.092a2.698 2.698 0 0 1-.115.254l-.013.027a3.66 3.66 0 0 1-.166.284l-.06.088a4.768 4.768 0 0 1-.369.488 7.904 7.904 0 0 1-.265.298l-.083.089c-.082.085-.166.169-.253.253l-.025.025c-.098.094-.2.188-.303.281l-.069.06c-.081.071-.162.142-.245.212l-.095.079a14.072 14.072 0 0 1-.584.465l-.072.055c-.226.171-.453.336-.675.491-1.237.866-2.323 1.458-2.323 1.458s.892-.026 2.323-.268h.002c.354-.06.739-.133 1.153-.223l.042-.009c.117-.026.237-.052.358-.081l.106-.025c.103-.024.207-.049.313-.076l.134-.034a22.36 22.36 0 0 0 .452-.119c.101-.027.203-.056.306-.085l.151-.043.342-.102.125-.038a23.934 23.934 0 0 0 .963-.319l.164-.059.328-.12.199-.076c.101-.039.203-.078.305-.119a18.457 18.457 0 0 0 .514-.211l.213-.091c.104-.045.208-.092.313-.139l.208-.094c.113-.052.227-.106.341-.161l.182-.087c.168-.082.336-.166.504-.253l.021-.01c1.308-.677 1.828-1.616 1.872-2.643.132-3.083-4.018-6.965-4.018-6.965s2.809-.31 6.103-.958c.347-.068.699-.14 1.054-.216 1.951-.417 3.984-.949 5.646-1.601 1.511-.593 3.206-1.388 4.821-2.202.323-.163.644-.324.958-.489 1.412-.741 3.321-2.831 3.321-2.831s.649.238.647 1.218c-.004 1.838 1.85 4.953 2.327 7.419.095.493.207.962.336 1.393.068.226.142.439.221.642l.974 39.958c-.052.234-.294.639-.475.797z"/><path d="M43.149 67.899l15.464 2.124v-4.135l-15.464-2.124zm26.238 2.124l15.464-2.124v-4.135l-15.464 2.124z"/></svg>