<?xml version="1.0" encoding="UTF-8"?>
<!DOCTYPE svg PUBLIC "-//W3C//DTD SVG 1.1//EN" "http://www.w3.org/Graphics/SVG/1.1/DTD/svg11.dtd">
<!-- Creator: CorelDRAW X8 -->
<svg xmlns="http://www.w3.org/2000/svg" xml:space="preserve" width="71px" height="100px" version="1.1" style="shape-rendering:geometricPrecision; text-rendering:geometricPrecision; image-rendering:optimizeQuality; fill-rule:evenodd; clip-rule:evenodd"
viewBox="0 0 71 100"
 xmlns:xlink="http://www.w3.org/1999/xlink">
 <defs>
  <style type="text/css">
   <![CDATA[
    .fil1 {fill:white;fill-rule:nonzero}
    .fil0 {fill:white;fill-rule:nonzero;fill-opacity:0.301961}
   ]]>
  </style>
 </defs>
 <g id="Слой_x0020_1">
  <metadata id="CorelCorpID_0Corel-Layer"/>
  <polygon class="fil0" points="10,94 70,94 70,100 0,100 0,98 60,6 5,6 5,0 71,0 71,2 "/>
  <polygon class="fil1" points="11,39 14,39 14,41 9,41 9,39 12,35 9,35 9,34 14,34 14,35 "/>
  <polygon id="1" class="fil1" points="15,41 15,34 19,34 19,35 17,35 17,36 19,36 19,38 17,38 17,39 20,39 20,41 "/>
  <path id="2" class="fil1" d="M25 39c0,0 0,0 0,1 0,0 -1,0 -1,1 -1,0 -1,0 -2,0 0,0 -1,0 -2,-1l0 -1c1,0 1,0 1,0 1,0 1,0 1,0 0,0 1,0 1,0 0,0 0,0 0,0 0,0 0,0 0,-1 0,0 0,0 0,0 -1,0 -1,0 -1,0 -1,0 -2,-1 -2,-2 0,-1 0,-1 1,-2 0,0 1,0 2,0 0,0 0,0 1,0 0,0 0,0 0,0 0,0 1,0 1,0l0 2c-1,-1 -1,-1 -2,-1 0,0 0,0 0,0 -1,0 -1,1 -1,1 0,0 0,0 1,0 0,0 0,0 0,0 1,1 1,1 2,1 0,1 0,1 0,2z"/>
  <polygon id="3" class="fil1" points="29,35 29,41 27,41 27,35 26,35 26,34 31,34 31,35 "/>
  <polygon id="4" class="fil1" points="9,53 9,47 11,47 11,52 13,52 13,53 "/>
  <path id="5" class="fil1" d="M18 53l0 -1 -2 0 0 1 -2 0 2 -6 2 0 3 6 -3 0zm-1 -5l0 0c0,0 0,0 0,0 0,1 0,1 -1,3l2 0 -1 -2c0,0 0,-1 0,-1z"/>
  <polygon id="6" class="fil1" points="26,52 29,52 29,53 24,53 24,52 27,48 24,48 24,47 29,47 29,48 "/>
  <polygon id="7" class="fil1" points="30,53 30,47 35,47 35,48 32,48 32,49 34,49 34,51 32,51 32,52 35,52 35,53 "/>
  <path id="8" class="fil1" d="M40 51c0,1 0,1 0,2 0,0 -1,0 -1,0 0,0 -1,1 -2,1 0,0 -1,-1 -2,-1l0 -2c1,0 1,1 1,1 1,0 1,0 1,0 1,0 1,0 1,0 0,0 0,0 0,0 0,-1 0,-1 0,-1 0,0 0,0 0,0 0,0 -1,0 -1,0 -1,-1 -2,-1 -2,-2 0,-1 1,-2 1,-2 1,0 1,0 2,0 0,0 1,0 1,0 0,0 0,0 0,0 0,0 1,0 1,0l0 1c-1,0 -1,0 -2,0 0,0 0,0 0,0 0,0 0,0 0,0 0,1 0,1 0,1 0,0 0,0 0,0 1,0 2,1 2,1 0,0 0,1 0,1z"/>
  <polygon id="9" class="fil1" points="45,48 45,53 43,53 43,48 41,48 41,47 47,47 47,48 "/>
  <polygon id="10" class="fil1" points="47,53 47,47 52,47 52,48 49,48 49,49 51,49 51,51 49,51 49,52 52,52 52,53 "/>
  <polygon id="11" class="fil1" points="9,66 9,59 11,59 11,65 13,65 13,66 "/>
  <path id="12" class="fil1" d="M18 66l0 -1 -2 0 0 1 -2 0 2 -7 2 0 3 7 -3 0zm-1 -5l0 0c0,0 0,0 0,0 0,0 0,1 -1,2l2 0 -1 -1c0,-1 0,-1 0,-1z"/>
  <path id="13" class="fil1" d="M29 64c0,1 0,1 -1,1 0,1 0,1 -1,1 0,0 0,0 -1,0 -1,0 -1,0 -2,0l0 -2c0,0 1,0 1,1 0,0 1,0 1,0 0,0 0,0 0,0 0,0 1,-1 1,-1 0,0 0,0 -1,0 0,0 0,0 0,0 0,0 0,0 -1,-1 -1,0 -1,-1 -1,-2 0,0 0,-1 1,-1 0,-1 1,-1 2,-1 0,0 0,0 0,0 0,0 1,0 1,0 0,0 0,0 0,0l0 2c0,0 -1,0 -1,0 0,0 -1,0 -1,0 0,0 0,0 0,0 0,0 0,0 0,1 0,0 1,0 1,0 1,0 1,1 1,1 1,0 1,1 1,1z"/>
  <path id="14" class="fil1" d="M35 66c-1,0 -2,0 -2,0 -1,0 -2,0 -2,0 -1,0 -1,-1 -1,-1 -1,-1 -1,-1 -1,-2 0,-1 0,-1 1,-2 0,-1 0,-1 1,-1 1,-1 1,-1 2,-1 1,0 1,0 2,0l0 2c0,0 -1,0 -1,0 0,0 0,0 -1,0 0,0 -1,0 -1,0 0,1 -1,1 -1,2 0,0 1,1 1,1 0,0 1,0 1,0 1,0 1,0 2,0l0 2z"/>
  <path id="15" class="fil1" d="M42 63c0,0 0,1 0,2 -1,0 -1,0 -1,1 -1,0 -2,0 -2,0 -1,0 -1,0 -2,0 0,0 -1,-1 -1,-1 0,-1 -1,-2 -1,-2 0,-1 1,-1 1,-2 0,-1 1,-1 1,-1 1,-1 1,-1 2,-1 1,0 1,0 2,1 0,0 0,0 1,1 0,0 0,1 0,2zm-2 0c0,-1 0,-1 0,-2 -1,0 -1,0 -1,0 -1,0 -1,0 -1,0 0,1 0,1 0,2 0,0 0,1 0,1 0,0 0,0 1,0 0,0 0,0 0,0 1,0 1,0 1,0 0,-1 0,-1 0,-1z"/>
  <path id="16" class="fil1" d="M47 66l-1 -1c0,-1 0,-1 0,-1 0,0 -1,0 -1,0l0 0 0 2 -2 0 0 -7 3 0c1,0 2,1 2,1 0,0 1,1 1,1 0,1 0,1 -1,1 0,1 0,1 -1,1l0 0c0,0 1,0 1,1 0,0 0,0 0,0l1 2 -2 0zm-1 -5c0,0 0,0 0,0 0,0 0,0 0,0l-1 0 0 1 1 0c0,0 0,0 0,0 0,0 0,0 0,-1z"/>
  <polygon id="17" class="fil1" points="52,65 55,65 55,66 49,66 49,65 52,61 50,61 50,59 55,59 55,61 "/>
  <path id="18" class="fil1" d="M60 66l0 -1 -2 0 0 1 -3 0 3 -7 2 0 2 7 -2 0zm-1 -5l0 0c0,0 0,0 0,0 0,0 0,1 -1,2l2 0 -1 -1c0,-1 0,-1 0,-1z"/>
 </g>
</svg>
