<?xml version="1.0" encoding="iso-8859-1"?>
<!-- Generator: Adobe Illustrator 19.0.0, SVG Export Plug-In . SVG Version: 6.00 Build 0)  -->
<svg version="1.1" id="Capa_1" xmlns="http://www.w3.org/2000/svg" xmlns:xlink="http://www.w3.org/1999/xlink" x="0px" y="0px"
	 viewBox="0 0 512 512" style="enable-background:new 0 0 512 512;" xml:space="preserve">
<g>
	<g>
		<path d="M507.238,183.541c-2.917-1.473-6.413-1.177-9.041,0.765l-56.169,41.489c-3.845,2.84-4.66,8.26-1.82,12.106
			c2.84,3.844,8.259,4.661,12.106,1.82l42.371-31.296v66.063c0,4.78,3.876,8.656,8.656,8.656s8.656-3.876,8.655-8.656v-83.219
			C511.995,188.002,510.155,185.013,507.238,183.541z"/>
	</g>
</g>
<g>
	<g>
		<path d="M370.69,82.598L261.143,1.694c-3.058-2.258-7.229-2.258-10.285,0L141.31,82.598c-3.007,2.22-4.249,6.12-3.079,9.67
			c1.169,3.55,4.485,5.949,8.222,5.949h219.095c3.738,0,7.054-2.399,8.222-5.949C374.938,88.718,373.696,84.818,370.69,82.598z
			 M172.745,80.905l83.257-61.488l83.255,61.488H172.745z"/>
	</g>
</g>
<g>
	<g>
		<path d="M69.974,225.795l-56.171-41.489c-2.627-1.94-6.124-2.237-9.042-0.765c-2.917,1.472-4.757,4.46-4.757,7.728v83.219
			c0,4.78,3.876,8.656,8.656,8.656s8.656-3.876,8.656-8.656v-66.063l42.372,31.296c3.845,2.839,9.264,2.027,12.106-1.82
			C74.634,234.055,73.819,228.635,69.974,225.795z"/>
	</g>
</g>
<g>
	<g>
		<path d="M447.169,80.905H64.83c-4.78,0-8.656,3.876-8.656,8.656v143.459c0,2.737,1.295,5.314,3.493,6.947l191.17,142.101
			c1.532,1.139,3.348,1.708,5.163,1.708s3.631-0.57,5.163-1.71l191.169-142.101c2.198-1.633,3.493-4.209,3.493-6.947V89.561
			C455.825,84.78,451.949,80.905,447.169,80.905z M438.513,228.668L256,364.334L73.486,228.668V98.217h365.027V228.668z"/>
	</g>
</g>
<g>
	<g>
		<path d="M406.344,143.638H105.658c-4.78,0-8.656,3.876-8.656,8.656c0,4.78,3.876,8.656,8.656,8.656h300.686
			c4.78,0,8.656-3.876,8.656-8.656C415,147.513,411.124,143.638,406.344,143.638z"/>
	</g>
</g>
<g>
	<g>
		<path d="M406.344,203.321H105.658c-4.78,0-8.656,3.876-8.656,8.656s3.876,8.656,8.656,8.656h300.686
			c4.78,0,8.656-3.876,8.656-8.656S411.124,203.321,406.344,203.321z"/>
	</g>
</g>
<g>
	<g>
		<path d="M389.412,263.013H122.588c-4.78,0-8.656,3.876-8.656,8.656s3.876,8.656,8.656,8.656h266.824
			c4.78,0,8.656-3.876,8.656-8.656S394.193,263.013,389.412,263.013z"/>
	</g>
</g>
<g>
	<g>
		<path d="M309.552,322.697H202.449c-4.78,0-8.656,3.876-8.656,8.656s3.876,8.656,8.656,8.656h107.103
			c4.779,0,8.656-3.876,8.656-8.656S314.332,322.697,309.552,322.697z"/>
	</g>
</g>
<g>
	<g>
		<path d="M509.461,185.149l-56.171-56.171c-3.381-3.38-8.861-3.38-12.242,0c-3.38,3.38-3.38,8.861,0,12.241l53.635,53.635v308.49
			c0,4.78,3.876,8.656,8.656,8.656s8.656-3.876,8.656-8.656V191.27C511.996,188.974,511.084,186.772,509.461,185.149z"/>
	</g>
</g>
<g>
	<g>
		<path d="M70.951,128.978c-3.38-3.38-8.861-3.38-12.241,0L2.54,185.149c-1.623,1.623-2.535,3.825-2.535,6.121v312.074
			c0,4.78,3.876,8.656,8.656,8.656s8.656-3.876,8.656-8.656v-308.49l53.634-53.635C74.332,137.839,74.332,132.359,70.951,128.978z"
			/>
	</g>
</g>
<g>
	<g>
		<path d="M508.504,496.398L298.594,340.361c-3.833-2.85-9.256-2.055-12.111,1.783c-2.852,3.837-2.054,9.258,1.783,12.111
			l188.921,140.432H34.815l188.919-140.433c3.837-2.852,4.635-8.274,1.783-12.111c-2.852-3.837-8.276-4.635-12.111-1.783
			L3.496,496.398c-2.995,2.227-4.226,6.123-3.053,9.667C1.615,509.608,4.928,512,8.661,512H503.34c3.733,0,7.045-2.39,8.218-5.935
			S511.5,498.626,508.504,496.398z"/>
	</g>
</g>
<g>
</g>
<g>
</g>
<g>
</g>
<g>
</g>
<g>
</g>
<g>
</g>
<g>
</g>
<g>
</g>
<g>
</g>
<g>
</g>
<g>
</g>
<g>
</g>
<g>
</g>
<g>
</g>
<g>
</g>
</svg>
