<?xml version="1.0" encoding="UTF-8"?>
<!DOCTYPE svg PUBLIC "-//W3C//DTD SVG 1.1//EN" "http://www.w3.org/Graphics/SVG/1.1/DTD/svg11.dtd">
<!-- Creator: CorelDRAW 2018 (64-Bit) -->
<svg xmlns="http://www.w3.org/2000/svg" xml:space="preserve" width="300px" height="160px" version="1.1" style="shape-rendering:geometricPrecision; text-rendering:geometricPrecision; image-rendering:optimizeQuality; fill-rule:evenodd; clip-rule:evenodd"
viewBox="0 0 300 160"
 xmlns:xlink="http://www.w3.org/1999/xlink">
 <defs>
  <style type="text/css">
   <![CDATA[
    .fil76 {fill:none}
    .fil220 {fill:#EFCF5D}
    .fil270 {fill:#FBC007}
    .fil129 {fill:#E9AA05}
    .fil243 {fill:#DEA00B}
    .fil204 {fill:#251400}
    .fil202 {fill:#251500}
    .fil201 {fill:#281802}
    .fil205 {fill:#311A00}
    .fil198 {fill:#3D2600}
    .fil207 {fill:#4B3813}
    .fil199 {fill:#4C3619}
    .fil203 {fill:#4E391E}
    .fil206 {fill:#513A1E}
    .fil200 {fill:#5D431B}
    .fil297 {fill:#6D4800}
    .fil302 {fill:#996600}
    .fil312 {fill:#A27200}
    .fil306 {fill:#A66700}
    .fil305 {fill:#AE7B00}
    .fil316 {fill:#B06F00}
    .fil296 {fill:#B17C00}
    .fil303 {fill:#B37E00}
    .fil301 {fill:#B47F00}
    .fil16 {fill:#B76E00}
    .fil250 {fill:#B77A00}
    .fil315 {fill:#B77C00}
    .fil309 {fill:#B98000}
    .fil300 {fill:#BA8A00}
    .fil313 {fill:#BB8300}
    .fil304 {fill:#BB8600}
    .fil274 {fill:#BD8800}
    .fil293 {fill:#BE8300}
    .fil299 {fill:#BE892A}
    .fil314 {fill:#BF7900}
    .fil1 {fill:#C49114}
    .fil15 {fill:#C58320}
    .fil186 {fill:#C77027}
    .fil290 {fill:#C88C00}
    .fil295 {fill:#C89A10}
    .fil194 {fill:#C97128}
    .fil192 {fill:#CB792C}
    .fil317 {fill:#CC8800}
    .fil107 {fill:#CF6500}
    .fil185 {fill:#CF732A}
    .fil47 {fill:#CF7C00}
    .fil23 {fill:#D27700}
    .fil245 {fill:#D29600}
    .fil249 {fill:#D29733}
    .fil55 {fill:#D37A00}
    .fil273 {fill:#D49A0D}
    .fil291 {fill:#D49F00}
    .fil25 {fill:#D57700}
    .fil298 {fill:#D59E2B}
    .fil167 {fill:#D69F20}
    .fil182 {fill:#D89900}
    .fil30 {fill:#DA7809}
    .fil41 {fill:#DA7B06}
    .fil17 {fill:#DA8322}
    .fil240 {fill:#DB9C00}
    .fil289 {fill:#DBA404}
    .fil11 {fill:#DC6600}
    .fil24 {fill:#DC8100}
    .fil46 {fill:#DC8200}
    .fil27 {fill:#DC8F0F}
    .fil43 {fill:#DD7000}
    .fil246 {fill:#DD9200}
    .fil20 {fill:#DD9429}
    .fil183 {fill:#DE9A00}
    .fil181 {fill:#DF9A00}
    .fil174 {fill:#DFA300}
    .fil32 {fill:#E05D00}
    .fil248 {fill:#E0A50A}
    .fil272 {fill:#E0A800}
    .fil28 {fill:#E17B00}
    .fil193 {fill:#E1903D}
    .fil177 {fill:#E19B00}
    .fil35 {fill:#E27C1C}
    .fil26 {fill:#E28619}
    .fil10 {fill:#E2A42C}
    .fil288 {fill:#E2A800}
    .fil175 {fill:#E2A81E}
    .fil184 {fill:#E38837}
    .fil29 {fill:#E3952C}
    .fil77 {fill:#E3A91C}
    .fil294 {fill:#E3AA00}
    .fil292 {fill:#E3AC31}
    .fil244 {fill:#E4AA3C}
    .fil265 {fill:#E4AE00}
    .fil62 {fill:#E58F29}
    .fil247 {fill:#E5A400}
    .fil13 {fill:#E68631}
    .fil287 {fill:#E6A100}
    .fil241 {fill:#E6AA13}
    .fil95 {fill:#E6AD2D}
    .fil125 {fill:#E6B034}
    .fil36 {fill:#E77E11}
    .fil106 {fill:#E7810F}
    .fil31 {fill:#E78829}
    .fil63 {fill:#E79D3C}
    .fil166 {fill:#E7A618}
    .fil214 {fill:#E7AF3F}
    .fil236 {fill:#E7B12E}
    .fil251 {fill:#E8A400}
    .fil238 {fill:#E8AC2F}
    .fil325 {fill:#E8B127}
    .fil39 {fill:#E9761F}
    .fil40 {fill:#E98811}
    .fil33 {fill:#E9890A}
    .fil253 {fill:#E9AB10}
    .fil234 {fill:#E9B119}
    .fil235 {fill:#E9B12A}
    .fil14 {fill:#EA7C24}
    .fil190 {fill:#EA9348}
    .fil229 {fill:#EAAD00}
    .fil254 {fill:#EAB000}
    .fil239 {fill:#EAB032}
    .fil209 {fill:#EAB234}
    .fil269 {fill:#EBA800}
    .fil78 {fill:#EBB138}
    .fil48 {fill:#EC9700}
    .fil179 {fill:#ECA710}
    .fil264 {fill:#ECAF00}
    .fil121 {fill:#ECB000}
    .fil168 {fill:#ECB002}
    .fil5 {fill:#ECB847}
    .fil311 {fill:#EDA900}
    .fil267 {fill:#EDB100}
    .fil159 {fill:#EDB421}
    .fil157 {fill:#EDB752}
    .fil137 {fill:#EDED37}
    .fil53 {fill:#EE972F}
    .fil231 {fill:#EEA600}
    .fil115 {fill:#EEB008}
    .fil94 {fill:#EEB848}
    .fil21 {fill:#EF8507}
    .fil323 {fill:#EFAD00}
    .fil2 {fill:#EFC27B}
    .fil44 {fill:#F09940}
    .fil242 {fill:#F0B200}
    .fil191 {fill:#F1A04F}
    .fil61 {fill:#F1A145}
    .fil164 {fill:#F1B200}
    .fil176 {fill:#F1B324}
    .fil9 {fill:#F29E29}
    .fil280 {fill:#F2AC00}
    .fil65 {fill:#F2B42C}
    .fil271 {fill:#F2B500}
    .fil213 {fill:#F2B517}
    .fil141 {fill:#F2B832}
    .fil37 {fill:#F39C34}
    .fil6 {fill:#F39F4A}
    .fil22 {fill:#F3A237}
    .fil71 {fill:#F3B854}
    .fil4 {fill:#F3BB33}
    .fil58 {fill:#F49627}
    .fil34 {fill:#F49A55}
    .fil45 {fill:#F4A151}
    .fil180 {fill:#F4B503}
    .fil133 {fill:#F4B516}
    .fil170 {fill:#F4BD54}
    .fil105 {fill:#F58B3D}
    .fil230 {fill:#F5AD00}
    .fil124 {fill:#F5B803}
    .fil266 {fill:#F5BC3A}
    .fil111 {fill:#F5BD5C}
    .fil52 {fill:#F69626}
    .fil54 {fill:#F6A82D}
    .fil178 {fill:#F6B800}
    .fil308 {fill:#F6BA2B}
    .fil237 {fill:#F6BD43}
    .fil51 {fill:#F7982D}
    .fil109 {fill:#F7BA00}
    .fil123 {fill:#F7BC50}
    .fil104 {fill:#F89243}
    .fil60 {fill:#F8A327}
    .fil38 {fill:#F8AB4B}
    .fil187 {fill:#F8AB5D}
    .fil160 {fill:#F8BD00}
    .fil173 {fill:#F8BD2D}
    .fil12 {fill:#F98F32}
    .fil56 {fill:#F9B622}
    .fil321 {fill:#F9BC00}
    .fil262 {fill:#F9BF12}
    .fil64 {fill:#F9BF74}
    .fil3 {fill:#F9C03B}
    .fil258 {fill:#F9C03F}
    .fil233 {fill:#F9C046}
    .fil112 {fill:#F9C048}
    .fil96 {fill:#F9C76D}
    .fil154 {fill:#FAA70D}
    .fil59 {fill:#FAAB18}
    .fil259 {fill:#FAB800}
    .fil57 {fill:#FAB966}
    .fil151 {fill:#FABE00}
    .fil80 {fill:#FAC874}
    .fil263 {fill:#FBC32B}
    .fil212 {fill:#FBC868}
    .fil50 {fill:#FC9B47}
    .fil189 {fill:#FCAB5F}
    .fil42 {fill:#FCB154}
    .fil140 {fill:#FCC439}
    .fil70 {fill:#FCC671}
    .fil150 {fill:#FCD14E}
    .fil19 {fill:#FDA23F}
    .fil279 {fill:#FDBC0C}
    .fil268 {fill:#FDC000}
    .fil18 {fill:#FEAE48}
    .fil138 {fill:#FEB20E}
    .fil322 {fill:#FEBD00}
    .fil119 {fill:#FEC30D}
    .fil67 {fill:#FEC54C}
    .fil261 {fill:#FEC657}
    .fil210 {fill:#FEC859}
    .fil169 {fill:#FEC96E}
    .fil49 {fill:#FFA649}
    .fil232 {fill:#FFB800}
    .fil286 {fill:#FFBB00}
    .fil319 {fill:#FFC100}
    .fil85 {fill:#FFC139}
    .fil282 {fill:#FFC200}
    .fil318 {fill:#FFC300}
    .fil127 {fill:#FFC303}
    .fil117 {fill:#FFC34B}
    .fil320 {fill:#FFC400}
    .fil310 {fill:#FFC418}
    .fil257 {fill:#FFC427}
    .fil153 {fill:#FFC42A}
    .fil132 {fill:#FFC42B}
    .fil197 {fill:#FFC500}
    .fil278 {fill:#FFC51D}
    .fil252 {fill:#FFC541}
    .fil196 {fill:#FFC60B}
    .fil73 {fill:#FFC65A}
    .fil260 {fill:#FFC65B}
    .fil165 {fill:#FFC71A}
    .fil255 {fill:#FFC807}
    .fil110 {fill:#FFC824}
    .fil87 {fill:#FFC85F}
    .fil102 {fill:#FFC900}
    .fil256 {fill:#FFC932}
    .fil79 {fill:#FFC94B}
    .fil66 {fill:#FFC967}
    .fil83 {fill:#FFC972}
    .fil211 {fill:#FFCA14}
    .fil122 {fill:#FFCB06}
    .fil162 {fill:#FFCC00}
    .fil126 {fill:#FFCC40}
    .fil281 {fill:#FFCC4B}
    .fil81 {fill:#FFCC53}
    .fil116 {fill:#FFCC7C}
    .fil285 {fill:#FFCD02}
    .fil307 {fill:#FFCD2C}
    .fil172 {fill:#FFCD50}
    .fil118 {fill:#FFCD61}
    .fil75 {fill:#FFCD82}
    .fil188 {fill:#FFCD94}
    .fil72 {fill:#FFCE88}
    .fil92 {fill:#FFCF00}
    .fil108 {fill:#FFCF30}
    .fil89 {fill:#FFCF59}
    .fil158 {fill:#FFCF7D}
    .fil120 {fill:#FFD050}
    .fil152 {fill:#FFD058}
    .fil134 {fill:#FFD05D}
    .fil68 {fill:#FFD064}
    .fil91 {fill:#FFD068}
    .fil7 {fill:#FFD09B}
    .fil218 {fill:#FFD10F}
    .fil131 {fill:#FFD140}
    .fil277 {fill:#FFD144}
    .fil69 {fill:#FFD18D}
    .fil93 {fill:#FFD237}
    .fil100 {fill:#FFD239}
    .fil208 {fill:#FFD251}
    .fil74 {fill:#FFD28C}
    .fil146 {fill:#FFD300}
    .fil155 {fill:#FFD305}
    .fil139 {fill:#FFD345}
    .fil163 {fill:#FFD400}
    .fil103 {fill:#FFD431}
    .fil224 {fill:#FFD633}
    .fil283 {fill:#FFD646}
    .fil284 {fill:gold}
    .fil99 {fill:#FFD747}
    .fil130 {fill:#FFD754}
    .fil114 {fill:#FFD761}
    .fil82 {fill:#FFD76D}
    .fil171 {fill:#FFD782}
    .fil195 {fill:#FFD84D}
    .fil226 {fill:#FFD939}
    .fil222 {fill:#FFDA77}
    .fil156 {fill:#FFDB40}
    .fil8 {fill:#FFDBBA}
    .fil128 {fill:#FFDD1E}
    .fil225 {fill:#FFDD81}
    .fil276 {fill:#FFDE39}
    .fil217 {fill:#FFDE44}
    .fil275 {fill:#FFDF3E}
    .fil228 {fill:#FFDF6A}
    .fil90 {fill:#FFE045}
    .fil161 {fill:#FFE067}
    .fil147 {fill:#FFE07F}
    .fil113 {fill:#FFE08B}
    .fil324 {fill:#FFE0A2}
    .fil227 {fill:#FFE185}
    .fil98 {fill:#FFE186}
    .fil135 {fill:#FFE1A5}
    .fil223 {fill:#FFE34E}
    .fil219 {fill:#FFE46B}
    .fil101 {fill:#FFE637}
    .fil216 {fill:#FFE652}
    .fil143 {fill:#FFE658}
    .fil221 {fill:#FFE683}
    .fil84 {fill:#FFE68D}
    .fil148 {fill:#FFE751}
    .fil145 {fill:#FFE763}
    .fil142 {fill:#FFE7A2}
    .fil215 {fill:#FFE873}
    .fil144 {fill:#FFE8AB}
    .fil149 {fill:#FFE95C}
    .fil88 {fill:#FFE9AC}
    .fil136 {fill:#FFE9B2}
    .fil86 {fill:#FFEFB9}
    .fil97 {fill:#FFF088}
    .fil0 {fill:#171D29;fill-rule:nonzero}
   ]]>
  </style>
 </defs>
 <g id="Слой_x0020_1">
  <metadata id="CorelCorpID_0Corel-Layer"/>
  <g id="_1921865452272">
   <path class="fil0" d="M0 89.31l2.16 0 0 7.12 7.88 -7.12 2.98 0 -8.55 7.72 9.23 9.19 -3.08 0 -7.77 -7.82 -0.69 0.61 0 7.21 -2.16 0 0 -16.91zm32.82 0l0 16.91 -2.17 0 0 -2.91c-0.91,1.11 -1.93,1.94 -3.07,2.49 -1.13,0.55 -2.37,0.83 -3.71,0.83 -2.39,0 -4.43,-0.86 -6.12,-2.6 -1.69,-1.73 -2.54,-3.83 -2.54,-6.31 0,-2.43 0.86,-4.51 2.57,-6.23 1.7,-1.73 3.75,-2.59 6.16,-2.59 1.38,0 2.63,0.29 3.76,0.88 1.12,0.58 2.1,1.46 2.95,2.64l0 -3.11 2.17 0zm-8.71 1.69c-1.22,0 -2.33,0.3 -3.35,0.89 -1.03,0.59 -1.84,1.42 -2.44,2.49 -0.61,1.08 -0.91,2.21 -0.91,3.41 0,1.18 0.3,2.32 0.91,3.4 0.61,1.08 1.43,1.93 2.46,2.53 1.03,0.6 2.13,0.9 3.31,0.9 1.18,0 2.31,-0.29 3.37,-0.89 1.07,-0.6 1.89,-1.41 2.46,-2.43 0.57,-1.02 0.86,-2.17 0.86,-3.45 0,-1.95 -0.64,-3.58 -1.93,-4.89 -1.29,-1.31 -2.87,-1.96 -4.74,-1.96zm25.64 7.07l-9.86 0 0 8.15 -2.17 0 0 -16.91 2.17 0 0 6.72 9.86 0 0 -6.72 2.17 0 0 16.91 -2.17 0 0 -8.15zm23.85 -8.76l0 16.91 -2.16 0 0 -2.91c-0.92,1.11 -1.94,1.94 -3.07,2.49 -1.13,0.55 -2.37,0.83 -3.71,0.83 -2.39,0 -4.43,-0.86 -6.13,-2.6 -1.69,-1.73 -2.53,-3.83 -2.53,-6.31 0,-2.43 0.85,-4.51 2.56,-6.23 1.7,-1.73 3.76,-2.59 6.16,-2.59 1.38,0 2.64,0.29 3.76,0.88 1.12,0.58 2.11,1.46 2.96,2.64l0 -3.11 2.16 0zm-8.71 1.69c-1.21,0 -2.33,0.3 -3.35,0.89 -1.02,0.59 -1.83,1.42 -2.44,2.49 -0.6,1.08 -0.91,2.21 -0.91,3.41 0,1.18 0.31,2.32 0.92,3.4 0.61,1.08 1.42,1.93 2.45,2.53 1.03,0.6 2.14,0.9 3.31,0.9 1.19,0 2.32,-0.29 3.38,-0.89 1.06,-0.6 1.88,-1.41 2.45,-2.43 0.58,-1.02 0.86,-2.17 0.86,-3.45 0,-1.95 -0.64,-3.58 -1.93,-4.89 -1.28,-1.31 -2.86,-1.96 -4.74,-1.96zm13.65 -1.69l2.16 0 0 3.11c0.86,-1.18 1.85,-2.06 2.97,-2.64 1.12,-0.59 2.37,-0.88 3.75,-0.88 2.4,0 4.45,0.86 6.16,2.59 1.71,1.72 2.56,3.8 2.56,6.23 0,2.48 -0.85,4.58 -2.54,6.31 -1.69,1.74 -3.73,2.6 -6.13,2.6 -1.34,0 -2.58,-0.28 -3.71,-0.84 -1.12,-0.56 -2.14,-1.39 -3.06,-2.5l0 9.1 -2.16 0 0 -23.08zm8.72 1.69c-1.89,0 -3.47,0.65 -4.75,1.96 -1.29,1.31 -1.93,2.94 -1.93,4.89 0,1.28 0.28,2.43 0.86,3.45 0.57,1.02 1.39,1.83 2.46,2.43 1.07,0.6 2.2,0.89 3.38,0.89 1.17,0 2.27,-0.3 3.3,-0.9 1.03,-0.6 1.84,-1.45 2.45,-2.53 0.61,-1.08 0.92,-2.22 0.92,-3.4 0,-1.2 -0.31,-2.33 -0.91,-3.41 -0.61,-1.07 -1.42,-1.9 -2.44,-2.49 -1.02,-0.59 -2.14,-0.89 -3.34,-0.89zm27.23 9.61l1.84 0.97c-0.61,1.17 -1.3,2.12 -2.09,2.84 -0.79,0.72 -1.68,1.27 -2.67,1.65 -0.99,0.37 -2.1,0.56 -3.35,0.56 -2.77,0 -4.93,-0.9 -6.49,-2.71 -1.56,-1.8 -2.34,-3.84 -2.34,-6.11 0,-2.14 0.67,-4.05 1.99,-5.72 1.67,-2.12 3.91,-3.19 6.72,-3.19 2.89,0 5.2,1.09 6.93,3.27 1.22,1.54 1.85,3.46 1.87,5.77l-15.28 0c0.04,1.96 0.67,3.56 1.89,4.81 1.22,1.25 2.73,1.87 4.51,1.87 0.87,0 1.71,-0.14 2.53,-0.44 0.82,-0.3 1.51,-0.69 2.09,-1.18 0.57,-0.5 1.19,-1.29 1.85,-2.39zm0.02 -4.55c-0.29,-1.16 -0.71,-2.08 -1.27,-2.78 -0.56,-0.69 -1.3,-1.25 -2.22,-1.67 -0.92,-0.43 -1.88,-0.64 -2.89,-0.64 -1.67,0 -3.1,0.53 -4.3,1.59 -0.88,0.79 -1.54,1.95 -1.99,3.5l12.67 0zm8.56 -6.75l0 12.52 12.44 -12.52 0.16 0 0 16.91 -2.16 0 0 -12.43 -12.34 12.43 -0.26 0 0 -16.91 2.16 0zm-0.29 -6.81l2.04 0c0.36,0.54 0.83,0.95 1.42,1.22 0.59,0.27 1.3,0.4 2.12,0.4 0.83,0 1.51,-0.12 2.01,-0.36 0.51,-0.23 1,-0.65 1.45,-1.26l1.98 0c-0.23,0.94 -0.82,1.72 -1.75,2.34 -0.94,0.63 -2.17,0.94 -3.71,0.94 -1.52,0 -2.76,-0.31 -3.72,-0.92 -0.97,-0.62 -1.58,-1.4 -1.84,-2.36zm17.74 6.81l2.16 0 0 7.12 7.88 -7.12 2.98 0 -8.55 7.72 9.23 9.19 -3.08 0 -7.77 -7.82 -0.69 0.61 0 7.21 -2.16 0 0 -16.91zm32.82 0l0 16.91 -2.17 0 0 -2.91c-0.91,1.11 -1.93,1.94 -3.07,2.49 -1.13,0.55 -2.37,0.83 -3.71,0.83 -2.39,0 -4.43,-0.86 -6.12,-2.6 -1.69,-1.73 -2.54,-3.83 -2.54,-6.31 0,-2.43 0.86,-4.51 2.56,-6.23 1.71,-1.73 3.76,-2.59 6.16,-2.59 1.39,0 2.64,0.29 3.77,0.88 1.11,0.58 2.1,1.46 2.95,2.64l0 -3.11 2.17 0zm-8.72 1.69c-1.2,0 -2.32,0.3 -3.34,0.89 -1.03,0.59 -1.84,1.42 -2.44,2.49 -0.61,1.08 -0.91,2.21 -0.91,3.41 0,1.18 0.3,2.32 0.91,3.4 0.61,1.08 1.43,1.93 2.46,2.53 1.03,0.6 2.13,0.9 3.31,0.9 1.18,0 2.31,-0.29 3.37,-0.89 1.07,-0.6 1.89,-1.41 2.46,-2.43 0.57,-1.02 0.86,-2.17 0.86,-3.45 0,-1.95 -0.64,-3.58 -1.93,-4.89 -1.29,-1.31 -2.87,-1.96 -4.75,-1.96z"/>
   <path class="fil0" d="M91.45 152.12l4.87 0 0 -27.46 -3.22 0 0 -7.86 12.94 0 0 0.43c0.92,-0.4 1.86,-0.71 2.81,-0.95 0.95,-0.24 1.94,-0.36 2.96,-0.36 2.18,0 4.21,0.41 6.09,1.24 1.88,0.82 3.5,1.94 4.88,3.36 1.37,1.41 2.46,3.07 3.23,4.95 0.78,1.9 1.17,3.91 1.17,6.04 0,2.13 -0.39,4.14 -1.14,6.03 -0.75,1.89 -1.82,3.54 -3.17,4.94 -1.36,1.4 -2.99,2.51 -4.87,3.32 -1.89,0.81 -3.95,1.21 -6.19,1.21 -1.26,0 -2.45,-0.12 -3.53,-0.35 -1.1,-0.24 -2.14,-0.58 -3.16,-1.02l0 6.48 5.69 0 0 7.86 -19.36 0 0 -7.86zm13.67 -16.27c0.62,0.97 1.45,1.77 2.49,2.38 1.06,0.62 2.24,0.92 3.56,0.92 0.98,0 1.91,-0.18 2.79,-0.56 0.88,-0.38 1.64,-0.89 2.3,-1.58 0.64,-0.68 1.16,-1.49 1.54,-2.41 0.38,-0.93 0.58,-1.95 0.58,-3.03 0,-1.23 -0.19,-2.31 -0.56,-3.28 -0.37,-0.96 -0.89,-1.77 -1.53,-2.44 -0.66,-0.67 -1.42,-1.18 -2.3,-1.53 -0.88,-0.36 -1.82,-0.54 -2.82,-0.54 -1.2,0 -2.32,0.33 -3.38,0.96 -1.06,0.65 -1.95,1.55 -2.67,2.71l0 8.4zm25.75 10.63l0 -7.86 4.52 0 0 -13.96 -4.38 0 0 -7.86 13.12 0 0 2.1c0.84,-0.67 1.79,-1.19 2.83,-1.55 1.06,-0.36 2.2,-0.55 3.44,-0.55 1.27,0 2.56,0.01 3.9,0.03 1.34,0.02 2.58,0.03 3.72,0.03l0 10.74 -8.05 0 0 -3.05c-0.78,0 -1.49,0.05 -2.15,0.15 -0.64,0.11 -1.21,0.29 -1.7,0.53 -0.49,0.25 -0.9,0.6 -1.23,1.04 -0.33,0.44 -0.57,0.97 -0.7,1.63l0 10.72 6.1 0 0 7.86 -19.42 0zm28.53 -14.95c0,-2.16 0.4,-4.19 1.19,-6.07 0.79,-1.89 1.9,-3.54 3.31,-4.95 1.41,-1.42 3.1,-2.53 5.05,-3.35 1.96,-0.83 4.11,-1.24 6.44,-1.24 2.34,0 4.48,0.41 6.44,1.24 1.95,0.82 3.62,1.93 5.03,3.35 1.41,1.41 2.5,3.06 3.28,4.95 0.78,1.88 1.17,3.91 1.17,6.07 0,2.16 -0.38,4.18 -1.15,6.08 -0.75,1.9 -1.83,3.56 -3.23,4.98 -1.39,1.42 -3.07,2.55 -5.02,3.37 -1.95,0.82 -4.12,1.23 -6.52,1.23 -2.41,0 -4.6,-0.41 -6.57,-1.23 -1.96,-0.82 -3.64,-1.94 -5.04,-3.36 -1.39,-1.41 -2.46,-3.06 -3.24,-4.96 -0.76,-1.9 -1.14,-3.93 -1.14,-6.11zm8.8 0c0,1.13 0.18,2.18 0.56,3.13 0.39,0.95 0.91,1.77 1.57,2.47 0.65,0.69 1.42,1.23 2.28,1.62 0.87,0.38 1.8,0.58 2.78,0.58 1.02,0 1.96,-0.19 2.82,-0.57 0.87,-0.37 1.62,-0.91 2.26,-1.6 0.63,-0.7 1.14,-1.52 1.5,-2.47 0.36,-0.96 0.54,-2.01 0.54,-3.16 0,-1.2 -0.18,-2.27 -0.54,-3.24 -0.36,-0.96 -0.87,-1.78 -1.51,-2.45 -0.62,-0.68 -1.36,-1.19 -2.23,-1.54 -0.82,-0.34 -1.72,-0.52 -2.69,-0.52 -0.06,0 -0.11,0 -0.16,0 -0.05,0 -0.09,0 -0.12,0 -0.92,0 -1.79,0.18 -2.63,0.52 -0.88,0.35 -1.65,0.86 -2.3,1.54 -0.66,0.67 -1.18,1.49 -1.57,2.45 -0.38,0.97 -0.56,2.04 -0.56,3.24zm26.27 -6.87l0 -7.86 13.02 0 0 30.2c0,2.27 -0.29,4.22 -0.84,5.84 -0.57,1.62 -1.39,2.96 -2.47,4.01 -1.07,1.05 -2.41,1.83 -3.99,2.32 -1.59,0.5 -3.4,0.75 -5.44,0.75l-0.11 -6.51c1.37,-0.06 2.39,-0.61 3.05,-1.65 0.67,-1.04 1,-2.43 1,-4.16l0 -22.94 -4.22 0zm17.77 6.6c0,-2.18 0.38,-4.23 1.13,-6.14 0.76,-1.91 1.82,-3.58 3.2,-5 1.37,-1.43 3.01,-2.55 4.93,-3.38 1.9,-0.82 4.03,-1.23 6.35,-1.23 2.33,0 4.4,0.39 6.2,1.17 1.81,0.77 3.33,1.84 4.58,3.2 1.24,1.37 2.19,2.97 2.86,4.82 0.67,1.85 1.03,3.83 1.09,5.96 0.07,0.48 0.11,0.94 0.11,1.4 0,0.09 0,0.19 0,0.29 0,0.38 -0.02,0.77 -0.06,1.17l-21.86 0 0.09 0.85c0.22,0.83 0.57,1.56 1.08,2.18 0.51,0.63 1.1,1.15 1.79,1.57 0.69,0.43 1.45,0.74 2.29,0.95 0.84,0.21 1.69,0.32 2.55,0.32 0.86,0 1.68,-0.05 2.45,-0.15 0.77,-0.11 1.52,-0.24 2.25,-0.42 0.72,-0.18 1.43,-0.37 2.12,-0.61 0.68,-0.22 1.38,-0.47 2.08,-0.72l3.16 5.89c-1.09,0.7 -2.09,1.28 -2.99,1.76 -0.91,0.48 -1.82,0.87 -2.74,1.2 -0.92,0.31 -1.9,0.53 -2.92,0.68 -1.03,0.15 -2.23,0.23 -3.61,0.23 -2.58,0 -4.87,-0.42 -6.87,-1.27 -2.01,-0.86 -3.7,-2 -5.06,-3.46 -1.37,-1.44 -2.4,-3.14 -3.13,-5.09 -0.71,-1.94 -1.07,-4 -1.07,-6.17zm8.8 -3.78l12.39 0c-0.12,-0.56 -0.32,-1.09 -0.56,-1.57 -0.26,-0.49 -0.6,-0.93 -1.04,-1.31 -0.44,-0.38 -1,-0.67 -1.67,-0.9 -0.67,-0.22 -1.53,-0.33 -2.53,-0.33 -1.08,0 -1.99,0.11 -2.74,0.33 -0.75,0.23 -1.39,0.53 -1.91,0.91 -0.51,0.39 -0.93,0.83 -1.23,1.32 -0.3,0.49 -0.55,1.01 -0.71,1.55zm25.77 3.18c0,-2.12 0.4,-4.07 1.2,-5.87 0.8,-1.81 1.92,-3.39 3.32,-4.75 1.44,-1.33 3.12,-2.38 5.05,-3.13 1.76,-0.68 3.64,-1.03 5.64,-1.05 0.2,0 0.39,0.01 0.61,0.03 0.22,-0.02 0.46,-0.03 0.71,-0.03 1.36,0 2.67,0.19 3.95,0.57 1.51,0.43 2.94,1.09 4.3,1.96l5.7 0 0 7.86 -7.91 0c-0.82,-0.86 -1.74,-1.51 -2.75,-1.96 -0.88,-0.38 -1.89,-0.57 -3.06,-0.57 -0.17,0 -0.35,0.01 -0.51,0.02 -0.2,-0.01 -0.37,-0.02 -0.55,-0.02 -0.88,0 -1.7,0.16 -2.46,0.47 -0.92,0.37 -1.71,0.88 -2.37,1.54 -0.66,0.65 -1.16,1.44 -1.53,2.35 -0.36,0.89 -0.54,1.92 -0.54,3.06 0,1.08 0.19,2.12 0.57,3.09 0.39,0.97 0.9,1.81 1.56,2.52 0.66,0.7 1.45,1.25 2.34,1.65 0.91,0.4 1.9,0.63 2.98,0.71 0.9,-0.08 1.71,-0.27 2.44,-0.57 0.73,-0.32 1.39,-0.71 1.97,-1.2 0.56,-0.49 1.06,-1.03 1.47,-1.64 0.41,-0.61 0.73,-1.17 0.96,-1.71l7.88 2.27c-0.33,1.19 -0.89,2.43 -1.68,3.72 -0.79,1.29 -1.82,2.47 -3.09,3.53 -1.27,1.06 -2.78,1.94 -4.53,2.63 -1.75,0.7 -3.73,1.05 -5.97,1.05 -2.27,0 -4.37,-0.43 -6.29,-1.3 -1.91,-0.86 -3.58,-2.04 -4.97,-3.53 -1.39,-1.49 -2.49,-3.24 -3.27,-5.24 -0.78,-2.01 -1.17,-4.16 -1.17,-6.46zm32.78 -6l0 -7.86 4.4 0 0.06 -7.1 8.79 -4.24 -0.05 11.34 5.98 0 0 7.86 -6.04 0 -0.06 12.27c0,0.72 0.06,1.29 0.17,1.73 0.11,0.44 0.28,0.78 0.5,1.05 0.22,0.26 0.48,0.44 0.79,0.54 0.31,0.08 0.66,0.13 1.06,0.13 0.72,0 1.36,-0.07 1.92,-0.2 0.55,-0.15 1.1,-0.32 1.66,-0.5l1.23 5.5c-0.98,0.62 -2.05,1.1 -3.25,1.46 -1.2,0.36 -2.61,0.55 -4.25,0.55 -1.15,0 -2.25,-0.2 -3.29,-0.6 -1.06,-0.4 -1.98,-1 -2.77,-1.81 -0.79,-0.8 -1.42,-1.81 -1.89,-3.02 -0.45,-1.18 -0.68,-2.52 -0.68,-4.04 0,-0.05 0,-0.12 0,-0.19l0.09 -12.87 -4.37 0z"/>
   <path class="fil0" d="M192.41 103.14c0,-1.54 0.28,-3 0.84,-4.38 0.57,-1.35 1.35,-2.55 2.35,-3.56 1.01,-0.98 2.19,-1.8 3.54,-2.38 1.35,-0.57 2.83,-0.88 4.42,-0.88 1.37,0 2.68,0.31 3.9,0.88 1.25,0.58 2.32,1.4 3.26,2.38 0.93,1.01 1.68,2.21 2.21,3.56 0.56,1.38 0.84,2.84 0.84,4.38 0,1.54 -0.28,3 -0.84,4.38 -0.53,1.35 -1.28,2.55 -2.21,3.56 -0.94,0.98 -2.01,1.8 -3.26,2.38 -1.22,0.58 -2.53,0.88 -3.9,0.88 -1.59,0 -3.07,-0.3 -4.42,-0.88 -1.35,-0.58 -2.53,-1.4 -3.54,-2.38 -1,-1.01 -1.78,-2.21 -2.35,-3.56 -0.56,-1.38 -0.84,-2.84 -0.84,-4.38z"/>
   <g>
    <polygon class="fil1" points="195.05,110.92 192.91,110.22 194.22,109.03 "/>
    <polygon class="fil2" points="194.22,109.03 192.97,108.58 192.91,110.22 "/>
    <polygon class="fil3" points="191.35,108.65 192.97,108.58 192.91,110.22 "/>
    <polygon class="fil4" points="191.35,108.65 190.2,107.35 192.97,108.58 "/>
    <polygon class="fil5" points="191.48,106.25 192.97,108.58 190.2,107.35 "/>
    <polygon class="fil6" points="191.54,104.44 191.48,106.25 190.2,107.35 "/>
    <polygon class="fil7" points="189.02,104.71 190.2,107.35 191.54,104.44 "/>
    <polygon class="fil8" points="188.68,103.09 191.54,104.44 189.02,104.71 "/>
    <polygon class="fil9" points="192.57,104.02 191.54,104.44 191.51,102.26 "/>
    <polygon class="fil10" points="192.71,101.38 193.18,103.35 192.57,104.02 "/>
    <polygon class="fil11" points="191.51,102.26 192.71,101.38 192.57,104.02 "/>
    <polygon class="fil12" points="188.68,103.09 191.51,102.26 191.54,104.44 "/>
    <polygon class="fil13" points="192.71,101.38 193.21,98.63 191.51,102.26 "/>
    <polygon class="fil14" points="188.68,103.09 188.62,101.03 191.51,102.26 "/>
    <polygon class="fil15" points="193.18,98.79 190.64,100.04 188.62,101.03 191.51,102.26 "/>
    <polygon class="fil16" points="190.18,97.56 193.18,98.79 190.64,100.04 "/>
    <polygon class="fil17" points="188.62,101.03 190.18,97.56 190.64,100.04 "/>
    <polygon class="fil18" points="188.98,93.27 190.18,97.56 189.62,98.79 "/>
    <polygon class="fil19" points="188.03,96.15 189.62,98.79 188.98,93.27 "/>
    <polygon class="fil20" points="195.39,96.52 193.18,98.79 192.37,95.4 "/>
    <polygon class="fil21" points="190.18,97.56 192.37,95.4 193.18,98.79 "/>
    <polygon class="fil22" points="188.98,93.27 192.37,95.4 190.18,97.56 "/>
    <polygon class="fil23" points="195.39,96.52 196.21,95.1 188.98,93.27 192.37,95.4 "/>
    <polygon class="fil24" points="190.05,91.31 188.98,93.27 191.42,93.89 "/>
    <polygon class="fil25" points="193.29,90.91 190.05,91.31 191.42,93.89 "/>
    <polygon class="fil26" points="196.21,95.1 197.89,91.77 193.11,94.32 "/>
    <polygon class="fil27" points="193.29,90.91 193.11,94.32 191.42,93.89 "/>
    <polygon class="fil28" points="197.89,91.77 193.29,90.91 193.11,94.32 "/>
    <polygon class="fil29" points="196.21,95.1 200.57,94.28 197.89,91.77 "/>
    <polygon class="fil30" points="193.29,90.91 194.64,89.08 197.89,91.77 "/>
    <polygon class="fil31" points="200.57,94.28 204.88,93.85 197.89,91.77 "/>
    <polygon class="fil32" points="194.64,89.08 198.88,87.64 197.89,91.77 "/>
    <polygon class="fil33" points="204.88,93.85 206.16,89.96 201.23,92.76 "/>
    <polygon class="fil34" points="198.88,87.64 200.51,90.35 197.89,91.77 "/>
    <polygon class="fil35" points="201.23,92.76 200.51,90.35 197.89,91.77 "/>
    <polygon class="fil36" points="198.88,87.64 203.31,88.09 200.51,90.35 "/>
    <polygon class="fil37" points="202.07,90.2 203.31,88.09 200.51,90.35 "/>
    <path class="fil38" d="M203.63 91.4c0,0 1.23,-1.73 1.32,-1.72 0.1,0.01 1.21,0.28 1.21,0.28l-2.53 1.44z"/>
    <polygon class="fil39" points="201.23,92.76 202.07,90.2 200.51,90.35 "/>
    <polygon class="fil40" points="203.63,91.4 202.07,90.2 201.23,92.76 "/>
    <polygon class="fil41" points="204.88,93.85 209.29,96.72 205.52,91.91 "/>
    <polygon class="fil42" points="206.16,89.96 206.78,88.91 209.78,88.22 "/>
    <polygon class="fil43" points="205.52,91.91 209.41,92.75 209.29,96.72 "/>
    <polygon class="fil44" points="206.16,89.96 209.41,92.75 205.52,91.91 "/>
    <polygon class="fil45" points="209.78,88.22 209.41,92.75 206.16,89.96 "/>
    <polygon class="fil46" points="209.29,96.72 212.39,94.8 209.36,94.47 "/>
    <polygon class="fil47" points="209.41,92.75 212.39,94.8 209.36,94.47 "/>
    <polygon class="fil48" points="209.29,96.72 212.03,99.31 212.39,94.8 "/>
    <polygon class="fil49" points="212.13,102.87 212.03,99.31 213.46,101.04 "/>
    <polygon class="fil50" points="212.39,94.8 215.07,99.75 212.03,99.31 "/>
    <polygon class="fil51" points="213.46,101.04 215.07,99.75 212.03,99.31 "/>
    <polygon class="fil52" points="216.7,102.51 213.46,101.04 215.07,99.75 "/>
    <polygon class="fil53" points="212.13,102.87 213.04,102.8 216.7,102.51 213.46,101.04 "/>
    <polygon class="fil54" points="213.52,105.09 212.13,102.87 216.7,102.51 "/>
    <polygon class="fil55" points="216.49,106.69 213.52,105.09 216.7,102.51 "/>
    <polygon class="fil56" points="209.87,111.33 215.01,105.89 216.49,106.69 "/>
    <polygon class="fil57" points="206.78,88.91 206.16,89.96 204.95,89.68 "/>
    <polygon class="fil58" points="209.41,92.75 215.02,89.8 209.78,88.22 "/>
    <polygon class="fil59" points="217.61,85.83 215.02,89.8 209.78,88.22 "/>
    <polygon class="fil60" points="222.57,87.82 217.61,85.83 215.02,89.8 "/>
    <polygon class="fil61" points="217.61,85.83 223.08,83.56 222.57,87.82 "/>
    <polygon class="fil62" points="228.29,85.42 223.08,83.56 222.57,87.82 "/>
    <polygon class="fil63" points="221.8,78.51 220.63,84.58 223.23,83.62 "/>
    <polygon class="fil64" points="228.29,85.42 230.53,83.59 223.23,83.62 "/>
    <polygon class="fil65" points="221.8,78.51 230.53,83.59 223.23,83.62 "/>
    <polygon class="fil66" points="220.63,84.58 221.8,78.51 218.76,77.55 "/>
    <polygon class="fil67" points="230.53,83.59 230.02,81.58 228.68,76.3 221.8,78.51 "/>
    <polygon class="fil68" points="239.14,85 230.02,81.58 228.68,76.3 "/>
    <path class="fil69" d="M267.25 105.51c0,0 1.41,8.41 1.22,8.35 -0.19,-0.07 -6.27,-6.11 -6.27,-6.11l5.05 -2.24z"/>
    <polygon class="fil70" points="267.19,115.74 267.59,113.04 262.36,110.98 "/>
    <polygon class="fil71" points="262.2,107.75 262.36,110.98 267.59,113.04 "/>
    <polygon class="fil72" points="267.25,105.51 276.12,113.41 274.71,107.49 "/>
    <polygon class="fil73" points="269.65,100.42 267.25,105.51 274.71,107.49 "/>
    <polygon class="fil74" points="277.94,110.59 275.31,110.03 276.5,106.82 "/>
    <polygon class="fil75" points="274.71,107.49 276.5,106.82 275.31,110.03 "/>
    <polygon class="fil76" points="269.65,100.42 276.5,106.82 274.71,107.49 "/>
    <polygon class="fil76" points="267.25,105.51 263.67,93.29 "/>
    <polygon class="fil77" points="262.36,110.98 250.14,94.34 262.2,107.75 "/>
    <polygon class="fil78" points="267.25,105.51 255.89,100.74 262.2,107.75 "/>
    <polygon class="fil79" points="263.67,93.29 262.37,103.45 267.25,105.51 "/>
    <polygon class="fil80" points="250.14,94.34 263.67,93.29 255.89,100.74 "/>
    <polygon class="fil81" points="250.14,94.34 260.57,90.18 260.11,93.56 "/>
    <polygon class="fil82" points="263.67,93.29 260.11,93.56 260.57,90.18 "/>
    <polygon class="fil83" points="250.14,94.34 239.14,85 257.4,91.45 "/>
    <polygon class="fil84" points="260.57,90.18 256.28,84.33 257.4,91.45 "/>
    <polygon class="fil85" points="239.14,85 250.97,78.09 246.93,87.75 "/>
    <polygon class="fil86" points="256.28,84.33 250.97,78.09 248.17,84.78 "/>
    <polygon class="fil87" points="246.93,87.75 256.28,84.33 248.17,84.78 "/>
    <polygon class="fil88" points="250.97,78.09 246.3,72.52 246.08,80.95 "/>
    <polygon class="fil89" points="239.14,85 239.29,77.29 228.68,76.3 "/>
    <polygon class="fil90" points="246.08,80.95 241.08,65.67 246.3,72.52 "/>
    <polygon class="fil91" points="239.29,77.29 246.08,80.95 239.14,85 "/>
    <polygon class="fil92" points="228.68,76.3 241.08,65.67 231.48,67.63 "/>
    <polygon class="fil93" points="239.29,77.29 241.08,65.67 228.68,76.3 "/>
    <polygon class="fil94" points="218.76,77.55 214.82,69.19 219.17,69.93 "/>
    <polygon class="fil95" points="221.8,78.51 219.17,69.93 218.76,77.55 "/>
    <polygon class="fil96" points="228.68,76.3 219.17,69.93 220.27,73.53 "/>
    <polygon class="fil97" points="231.48,67.63 237.93,62.51 241.08,65.67 "/>
    <polygon class="fil98" points="234.54,51.76 241.51,59.88 237.93,62.51 "/>
    <polygon class="fil99" points="241.08,65.67 241.51,59.88 237.93,62.51 "/>
    <polygon class="fil100" points="219.17,69.93 228.53,68.17 229.29,61 "/>
    <polygon class="fil101" points="231.48,67.63 229.29,61 237.93,62.51 "/>
    <polygon class="fil102" points="228.53,68.17 231.48,67.63 229.29,61 "/>
    <polygon class="fil103" points="225.89,68.67 228.68,76.3 231.48,67.63 "/>
    <polygon class="fil104" points="198.88,87.64 204.41,81.41 203.31,88.09 "/>
    <polygon class="fil105" points="205.65,79.78 204.41,81.41 205.01,85.96 "/>
    <polygon class="fil106" points="203.31,88.09 205.01,85.96 204.41,81.41 "/>
    <polygon class="fil107" points="205.65,79.78 210.29,79.88 205.01,85.96 "/>
    <polygon class="fil108" points="218.76,77.55 210.29,79.88 219.56,80.56 "/>
    <polygon class="fil109" points="205.65,79.78 214.82,69.19 218.76,77.55 "/>
    <polygon class="fil110" points="205.65,79.78 210.29,79.88 218.76,77.55 "/>
    <polygon class="fil111" points="263.67,93.29 262.37,103.45 255.89,100.74 "/>
    <polygon class="fil112" points="246.93,87.75 257.4,91.45 256.28,84.33 "/>
    <polygon class="fil113" points="241.08,65.67 239.29,77.29 246.08,80.95 "/>
    <polygon class="fil114" points="219.17,69.93 228.68,76.3 225.89,68.67 "/>
    <polygon class="fil115" points="220.27,73.53 221.8,78.51 228.68,76.3 "/>
    <polygon class="fil116" points="276.5,106.82 269.65,100.42 274.71,107.49 "/>
    <polygon class="fil117" points="263.67,93.29 269.65,100.42 267.25,105.51 "/>
    <polygon class="fil118" points="205.65,79.78 195.16,76.99 214.82,69.19 "/>
    <polygon class="fil119" points="196.6,63.94 201.99,74.28 195.16,76.99 "/>
    <polygon class="fil120" points="182.04,69.41 195.16,76.99 196.6,63.94 "/>
    <polygon class="fil121" points="214.82,69.19 229.29,61 219.17,69.93 "/>
    <polygon class="fil122" points="234.54,51.76 229.29,61 237.93,62.51 "/>
    <polygon class="fil123" points="196.6,63.94 214.82,69.19 201.99,74.28 "/>
    <polygon class="fil124" points="172.46,58.58 182.04,69.41 196.6,63.94 "/>
    <polygon class="fil125" points="214.82,69.19 211.36,56.21 196.6,63.94 "/>
    <polygon class="fil126" points="172.46,58.58 183.47,45.53 188.04,62.04 "/>
    <polygon class="fil127" points="211.36,56.21 229.29,61 214.82,69.19 "/>
    <polygon class="fil128" points="234.54,51.76 222.41,59.17 229.29,61 "/>
    <polygon class="fil129" points="211.36,56.21 212.42,52.95 222.41,59.17 "/>
    <polygon class="fil119" points="183.47,45.53 196.6,63.94 188.04,62.04 "/>
    <polygon class="fil130" points="172.46,58.58 168.59,50.26 183.47,45.53 "/>
    <polygon class="fil131" points="167.25,42.27 183.47,45.53 168.59,50.26 "/>
    <polygon class="fil132" points="171.07,55.6 167.31,52.7 168.59,50.26 "/>
    <polygon class="fil133" points="167.25,42.27 165.55,47 168.59,50.26 "/>
    <polygon class="fil134" points="167.31,52.7 165.55,47 168.59,50.26 "/>
    <path class="fil135" d="M212.42 52.95c0,0 4.96,-2.21 5.18,-2.21 0.22,0 4.81,8.43 4.81,8.43l-9.99 -6.22z"/>
    <polygon class="fil136" points="227.42,56.11 217.6,50.74 222.41,59.17 "/>
    <polygon class="fil119" points="190.55,55.45 195.85,48.38 183.47,45.53 "/>
    <polygon class="fil137" points="196.6,63.94 195.85,48.38 190.55,55.45 "/>
    <polygon class="fil119" points="211.36,56.21 196.17,55.1 196.6,63.94 "/>
    <polygon class="fil138" points="212.42,52.95 196.17,55.1 211.36,56.21 "/>
    <polygon class="fil139" points="217.6,50.74 205.44,43.39 212.42,52.95 "/>
    <polygon class="fil140" points="195.86,48.54 205.44,43.39 203.79,54.09 "/>
    <polygon class="fil141" points="212.42,52.95 205.44,43.39 203.79,54.09 "/>
    <polygon class="fil119" points="195.86,48.54 203.79,54.09 196.17,55.1 "/>
    <polygon class="fil142" points="217.6,50.74 212.48,39.36 205.44,43.39 "/>
    <polygon class="fil143" points="234.54,51.76 228.61,45.43 227.42,56.11 "/>
    <polygon class="fil144" points="217.6,50.74 228.61,45.43 227.42,56.11 "/>
    <polygon class="fil145" points="212.48,39.36 228.61,45.43 217.6,50.74 "/>
    <polygon class="fil146" points="223.68,38.97 212.48,39.36 228.61,45.43 "/>
    <polygon class="fil147" points="205.44,43.39 206.98,32.7 212.48,39.36 "/>
    <polygon class="fil92" points="223.68,38.97 206.98,32.7 212.48,39.36 "/>
    <polygon class="fil148" points="213.7,28.86 206.98,32.7 223.68,38.97 "/>
    <polygon class="fil149" points="205,25.54 206.98,32.7 213.7,28.86 "/>
    <polygon class="fil150" points="195.86,48.54 190.86,35.13 183.47,45.53 "/>
    <polygon class="fil151" points="205.44,43.39 190.86,35.13 195.86,48.54 "/>
    <polygon class="fil152" points="205,25.54 196.17,31.04 206.98,32.7 "/>
    <polygon class="fil153" points="205.44,43.39 196.17,31.04 206.98,32.7 "/>
    <polygon class="fil154" points="190.86,35.13 196.17,31.04 205.44,43.39 "/>
    <polygon class="fil155" points="205,25.54 204.74,20.93 200.58,28.29 "/>
    <polygon class="fil156" points="196.17,31.04 190.99,24.7 200.58,28.29 "/>
    <polygon class="fil157" points="190.86,35.13 193.58,27.87 196.17,31.04 "/>
    <polygon class="fil158" points="183.47,45.53 179.15,37.56 190.86,35.13 "/>
    <polygon class="fil119" points="171.99,43.22 179.15,37.56 183.47,45.53 "/>
    <polygon class="fil159" points="167.25,42.27 167.06,33.47 171.99,43.22 "/>
    <path class="fil156" d="M179.15 37.56c0,0 -2.71,-11.55 -2.82,-11.1 -0.1,0.44 -4.34,16.76 -4.34,16.76l7.16 -5.66z"/>
    <polygon class="fil119" points="193.58,27.87 179.15,37.56 190.86,35.13 "/>
    <polygon class="fil160" points="190.99,24.7 199.02,22.61 200.58,28.29 "/>
    <polygon class="fil161" points="204.74,20.93 204.49,16.12 202.16,17.65 "/>
    <polygon class="fil162" points="199.02,22.61 203.54,23.06 200.58,28.29 "/>
    <polygon class="fil163" points="202.16,17.65 203.54,23.06 204.74,20.93 "/>
    <polygon class="fil164" points="197.07,17.65 202.16,17.65 199.02,22.61 "/>
    <polygon class="fil165" points="203.54,23.06 202.16,17.65 199.02,22.61 "/>
    <polygon class="fil166" points="190.99,24.7 185.79,33.1 193.58,27.87 "/>
    <polygon class="fil119" points="176.34,26.43 185.79,33.1 179.15,37.56 "/>
    <polygon class="fil167" points="190.99,24.7 182.83,31.01 185.79,33.1 "/>
    <polygon class="fil168" points="197.07,17.65 196.06,23.38 199.02,22.61 "/>
    <polygon class="fil169" points="167.06,33.47 173.8,36.36 171.99,43.22 "/>
    <polygon class="fil170" points="176.34,26.45 168.85,34.24 173.8,36.36 "/>
    <polygon class="fil171" points="167.06,33.47 167.96,26.93 168.85,34.24 "/>
    <polygon class="fil172" points="171.9,31.06 167.96,26.93 168.85,34.24 "/>
    <polygon class="fil173" points="176.35,26.44 167.96,26.93 171.9,31.06 "/>
    <polygon class="fil174" points="182.83,31.01 183.54,24.72 180.17,29.14 "/>
    <polygon class="fil175" points="190.99,24.7 183.54,24.72 182.83,31.01 186.29,28.34 186.62,28.09 "/>
    <polygon class="fil176" points="188.05,21.33 190.99,24.7 183.54,24.72 "/>
    <polygon class="fil177" points="196.06,23.38 192.4,22.55 190.99,24.7 "/>
    <polygon class="fil178" points="197.07,17.65 193.27,20.31 196.44,21.22 "/>
    <polygon class="fil179" points="192.4,22.55 191.22,19.22 193.27,20.31 "/>
    <polygon class="fil180" points="196.44,21.22 192.4,22.55 196.06,23.38 "/>
    <polygon class="fil181" points="193.27,20.31 192.4,22.55 196.44,21.22 "/>
    <polygon class="fil182" points="197.07,17.65 191.22,19.22 193.27,20.31 "/>
    <polygon class="fil183" points="190.99,24.7 191.22,19.22 192.4,22.55 "/>
    <polygon class="fil184" points="204.49,16.12 209.45,11.86 202.99,12.25 "/>
    <polygon class="fil185" points="202.16,17.65 202.99,12.25 204.49,16.12 "/>
    <polygon class="fil186" points="197.07,17.65 202.99,12.25 202.16,17.65 "/>
    <polygon class="fil187" points="209.45,11.86 208.21,9.88 202.99,12.25 "/>
    <polygon class="fil188" points="199.54,6.07 204.69,7.54 202.32,10.26 "/>
    <polygon class="fil189" points="208.21,9.88 204.69,7.54 202.99,12.25 "/>
    <polygon class="fil190" points="202.32,10.26 202.99,12.25 204.69,7.54 "/>
    <polygon class="fil191" points="199.54,6.07 198.13,10.33 202.32,10.26 "/>
    <polygon class="fil192" points="197.07,17.65 197.94,12.79 202.99,12.25 "/>
    <polygon class="fil193" points="198.13,10.33 196.02,12.09 197.94,12.79 "/>
    <polygon class="fil194" points="202.32,10.26 197.94,12.79 198.13,10.33 "/>
    <polygon class="fil193" points="202.99,12.25 202.32,10.26 197.94,12.79 "/>
    <polygon class="fil195" points="203.52,7.21 201.44,3.46 199.54,6.07 "/>
    <polygon class="fil196" points="198.13,10.33 195.67,5.88 199.54,6.07 "/>
    <polygon class="fil197" points="201.44,3.46 199.31,1.48 199.54,6.07 "/>
    <polygon class="fil198" points="184.69,10.85 185.88,10.09 186.9,11.21 "/>
    <polygon class="fil199" points="184.69,10.85 184.48,12.01 186.9,11.21 "/>
    <polygon class="fil200" points="185.28,13.34 184.48,12.01 186.9,11.21 "/>
    <polygon class="fil201" points="187.44,13.92 185.28,13.34 186.9,11.21 "/>
    <polygon class="fil202" points="188.3,13.61 186.9,11.21 187.44,13.92 "/>
    <polygon class="fil203" points="185.88,10.09 186.88,10.01 186.9,11.21 "/>
    <polygon class="fil204" points="188.3,13.61 189.11,12.59 186.9,11.21 "/>
    <polygon class="fil205" points="186.88,10.01 187.91,10.25 186.9,11.21 "/>
    <polygon class="fil206" points="189.11,12.59 188.87,11.41 186.9,11.21 "/>
    <polygon class="fil207" points="187.91,10.25 188.87,11.41 186.9,11.21 "/>
    <polygon class="fil208" points="167.96,26.93 169.03,21.8 174.01,26.58 "/>
    <polygon class="fil209" points="176.35,26.44 175.61,22.09 174.01,26.58 "/>
    <polygon class="fil210" points="169.03,21.8 173.06,21.48 172.65,25.28 "/>
    <polygon class="fil211" points="169.28,18.15 173.06,21.48 169.03,21.8 "/>
    <polygon class="fil212" points="172.65,25.28 175.61,22.09 173.06,21.48 "/>
    <polygon class="fil213" points="174.01,26.58 172.65,25.28 175.61,22.09 "/>
    <polygon class="fil214" points="176.35,26.44 183.54,24.72 180.17,29.14 "/>
    <polygon class="fil215" points="199.31,1.48 196.66,0.17 194.74,0.97 "/>
    <polygon class="fil163" points="199.31,1.48 199.54,6.07 197.97,3.85 "/>
    <polygon class="fil216" points="194.74,0.97 197.97,3.85 199.31,1.48 "/>
    <polygon class="fil92" points="195.67,5.88 197.97,3.85 199.54,6.07 "/>
    <polygon class="fil217" points="194.74,0.97 195.67,5.88 196.58,2.6 "/>
    <polygon class="fil218" points="197.97,3.85 196.58,2.6 195.67,5.88 "/>
    <polygon class="fil219" points="194.74,0.97 191.38,0.02 196.66,0.17 "/>
    <polygon class="fil220" points="169.28,18.15 170.67,13.78 170.21,18.98 "/>
    <polygon class="fil221" points="191.38,0.02 186.28,0.66 184.65,2.1 "/>
    <polygon class="fil222" points="170.67,13.78 173.01,9.14 174.28,10.17 "/>
    <polygon class="fil223" points="184.65,2.1 182.92,1.21 186.28,0.66 "/>
    <polygon class="fil76" points="174.28,10.17 174.44,7.59 173.01,9.14 "/>
    <polygon class="fil224" points="182.92,1.21 182.57,5.42 184.65,2.1 "/>
    <polygon class="fil225" points="174.44,7.59 176.65,5.16 174.28,10.17 "/>
    <polygon class="fil226" points="182.57,5.42 181.39,1.77 182.92,1.21 "/>
    <polygon class="fil227" points="176.65,5.16 178.28,3.29 179.45,4.74 "/>
    <polygon class="fil228" points="181.39,1.77 178.28,3.29 179.45,4.74 "/>
    <polygon class="fil229" points="188.05,21.33 191.22,19.22 190.99,24.7 "/>
    <polygon class="fil185" points="196.02,12.09 197.07,17.65 197.94,12.79 "/>
    <polygon class="fil230" points="195.67,5.88 193.81,8.34 195.57,8.44 "/>
    <polygon class="fil231" points="198.13,10.33 195.57,8.44 196.9,8.1 "/>
    <polygon class="fil232" points="195.67,5.88 196.9,8.1 195.57,8.44 "/>
    <polygon class="fil233" points="173.06,21.48 177.92,19.7 175.61,22.09 "/>
    <polygon class="fil234" points="176.34,26.43 178.59,24.08 175.61,22.09 "/>
    <polygon class="fil235" points="183.54,24.72 181.37,22.45 179.61,25.66 "/>
    <polygon class="fil236" points="178.59,24.08 179.61,25.66 176.31,26.45 "/>
    <polygon class="fil237" points="177.92,19.7 178.59,24.08 175.61,22.09 "/>
    <polygon class="fil238" points="181.37,22.45 178.59,24.08 179.61,25.66 "/>
    <polygon class="fil239" points="177.92,19.7 181.37,22.45 178.59,24.08 "/>
    <polygon class="fil240" points="183.54,24.72 184.25,19.16 181.37,22.45 "/>
    <polygon class="fil241" points="188.05,21.33 184.25,19.16 183.54,24.72 "/>
    <polygon class="fil242" points="191.22,19.22 188.76,16.85 188.05,21.33 "/>
    <polygon class="fil243" points="197.07,17.65 193.69,17.04 191.22,19.22 "/>
    <polygon class="fil244" points="196.02,12.09 193.94,14.65 197.07,17.65 "/>
    <polygon class="fil245" points="193.69,17.04 193.94,14.65 197.07,17.65 "/>
    <polygon class="fil246" points="195.57,8.44 196.02,12.09 198.13,10.33 "/>
    <polygon class="fil247" points="188.76,16.85 193.69,17.04 191.22,19.22 "/>
    <polygon class="fil248" points="193.94,14.65 188.76,16.85 193.69,17.04 "/>
    <polygon class="fil249" points="196.02,12.09 192.49,12.22 193.94,14.65 "/>
    <polygon class="fil250" points="195.57,8.44 192.49,12.22 196.02,12.09 "/>
    <polygon class="fil251" points="193.81,8.34 192.49,12.22 195.57,8.44 "/>
    <polygon class="fil252" points="173.06,21.48 173.66,17.3 170.21,18.98 "/>
    <polygon class="fil253" points="177.92,19.7 184.25,19.16 181.37,22.45 "/>
    <polygon class="fil254" points="188.76,16.85 184.25,19.16 188.05,21.33 "/>
    <polygon class="fil255" points="170.67,13.78 173.66,17.3 170.21,18.98 "/>
    <path class="fil256" d="M174.28 10.17c0,0 -0.03,2.44 -0.03,2.56 0,0.13 -3.58,1.05 -3.58,1.05l3.61 -3.61z"/>
    <polygon class="fil257" points="173.66,17.3 174.25,12.73 170.67,13.78 "/>
    <polygon class="fil258" points="177.92,19.7 175.86,17.65 175.49,20.59 "/>
    <polygon class="fil259" points="173.66,17.3 175.96,15.73 174.01,14.57 "/>
    <polygon class="fil260" points="173.06,21.48 174.74,19.09 173.66,17.3 "/>
    <polygon class="fil261" points="175.49,20.59 174.74,19.09 173.06,21.48 "/>
    <polygon class="fil262" points="175.86,17.65 174.74,19.09 175.49,20.59 "/>
    <polygon class="fil263" points="173.66,17.3 175.86,17.65 174.74,19.09 "/>
    <polygon class="fil264" points="177.92,19.7 179.92,17.21 175.86,17.65 "/>
    <polygon class="fil265" points="184.25,19.16 185.33,16.76 188.76,16.85 "/>
    <polygon class="fil266" points="179.92,17.21 181.46,19.4 177.92,19.7 "/>
    <polygon class="fil267" points="175.86,17.65 178.71,15.04 179.92,17.21 "/>
    <polygon class="fil268" points="175.96,15.73 175.86,17.65 173.66,17.3 "/>
    <polygon class="fil76" points="174.25,12.73 178.44,12.56 174.01,14.57 "/>
    <polygon class="fil269" points="175.96,15.73 176.41,13.48 174.01,14.57 "/>
    <polygon class="fil270" points="178.71,15.04 175.96,15.73 175.86,17.65 "/>
    <polygon class="fil264" points="176.41,13.48 178.44,12.56 178.71,15.04 "/>
    <polygon class="fil271" points="175.96,15.73 176.41,13.48 178.71,15.04 "/>
    <polygon class="fil272" points="185.33,16.76 185.83,15.6 188.76,16.85 "/>
    <polygon class="fil273" points="193.94,14.65 191.79,13.79 188.76,16.85 "/>
    <polygon class="fil274" points="192.49,12.22 191.79,13.79 193.94,14.65 "/>
    <polygon class="fil92" points="195.67,5.88 191.78,4.53 194.74,0.97 "/>
    <polygon class="fil275" points="191.38,0.02 191.78,4.53 194.74,0.97 "/>
    <polygon class="fil276" points="184.65,2.1 188.61,4.02 191.38,0.02 "/>
    <polygon class="fil92" points="182.57,5.42 188.61,4.02 184.65,2.1 "/>
    <polygon class="fil277" points="179.45,4.74 174.28,10.17 176.65,5.16 "/>
    <polygon class="fil278" points="174.25,12.73 179.45,4.74 174.28,10.17 "/>
    <polygon class="fil279" points="178.44,12.56 179.45,4.74 174.24,12.74 "/>
    <polygon class="fil163" points="182.57,5.42 179.45,4.74 181.39,1.77 "/>
    <polygon class="fil280" points="178.44,12.56 182.4,10.42 178.88,9.12 "/>
    <polygon class="fil281" points="179.45,4.74 180.61,7.03 178.88,9.12 "/>
    <polygon class="fil282" points="182.57,5.42 180.61,7.03 179.45,4.74 "/>
    <polygon class="fil283" points="188.61,4.02 189.44,7.22 191.78,4.53 "/>
    <polygon class="fil284" points="191.38,0.02 191.78,4.53 188.61,4.02 "/>
    <polygon class="fil285" points="189.44,7.22 195.67,5.88 191.78,4.53 "/>
    <polygon class="fil286" points="189.44,7.22 195.67,5.88 193.81,8.34 "/>
    <polygon class="fil287" points="192.49,12.22 189.44,7.22 193.81,8.34 "/>
    <polygon class="fil288" points="178.71,15.04 182.4,14.34 179.92,17.21 "/>
    <polygon class="fil289" points="184.25,19.16 182.4,14.34 181.46,19.4 "/>
    <polygon class="fil290" points="179.92,17.21 182.4,14.34 181.46,19.4 "/>
    <polygon class="fil291" points="185.83,15.6 182.4,14.34 184.25,19.16 "/>
    <polygon class="fil292" points="191.79,13.79 185.83,15.6 188.76,16.85 "/>
    <polygon class="fil293" points="182.4,10.42 182.4,14.34 178.44,12.56 "/>
    <polygon class="fil294" points="178.71,15.04 178.44,12.56 182.4,14.34 "/>
    <polygon class="fil295" points="185.83,15.6 187.44,13.92 191.79,13.79 "/>
    <polygon class="fil296" points="188.3,13.61 192.49,12.22 191.79,13.79 187.44,13.92 "/>
    <polygon class="fil297" points="189.11,12.59 188.3,13.61 190.44,12.9 "/>
    <polygon class="fil298" points="185.28,13.34 185.83,15.6 187.44,13.92 "/>
    <polygon class="fil299" points="184.48,12.01 182.4,14.34 185.28,13.34 "/>
    <polygon class="fil300" points="185.83,15.6 185.28,13.34 182.4,14.34 "/>
    <polygon class="fil301" points="184.48,12.01 182.4,10.42 182.4,14.34 "/>
    <polygon class="fil302" points="188.87,11.41 190.96,9.72 192.49,12.22 "/>
    <polygon class="fil303" points="190.44,12.9 190.48,11.77 192.49,12.22 "/>
    <polygon class="fil304" points="188.87,11.41 189.11,12.59 190.48,11.77 "/>
    <polygon class="fil305" points="190.44,12.9 189.11,12.59 190.48,11.77 "/>
    <polygon class="fil306" points="189.44,7.22 188.87,11.41 190.96,9.72 "/>
    <polygon class="fil307" points="182.57,5.42 185.9,6.89 188.61,4.02 "/>
    <polygon class="fil308" points="182.4,10.42 180.61,7.03 178.88,9.12 "/>
    <polygon class="fil309" points="184.69,10.85 182.4,10.42 184.48,12.01 "/>
    <polygon class="fil310" points="185.9,6.89 180.61,7.03 182.57,5.42 "/>
    <polygon class="fil311" points="182.4,10.42 184.6,9.18 180.61,7.03 "/>
    <polygon class="fil312" points="185.88,10.09 184.6,9.18 184.69,10.85 "/>
    <polygon class="fil293" points="182.4,10.42 184.6,9.18 184.69,10.85 "/>
    <polygon class="fil313" points="186.88,10.01 187.28,7.03 185.88,10.09 "/>
    <polygon class="fil314" points="187.91,10.25 187.28,7.03 186.88,10.01 "/>
    <polygon class="fil315" points="189.44,7.22 187.91,10.25 188.87,11.41 "/>
    <polygon class="fil316" points="187.28,7.03 189.44,7.22 187.91,10.25 "/>
    <polygon class="fil317" points="184.6,9.18 187.28,7.03 185.88,10.09 "/>
    <polygon class="fil318" points="189.44,7.22 187.26,5.45 187.28,7.03 "/>
    <polygon class="fil319" points="188.61,4.02 187.26,5.45 189.44,7.22 "/>
    <polygon class="fil320" points="185.9,6.89 187.28,7.03 187.26,5.45 "/>
    <polygon class="fil321" points="184.6,9.18 183.78,6.94 180.61,7.03 "/>
    <polygon class="fil322" points="185.9,6.89 184.6,9.18 183.78,6.94 "/>
    <polygon class="fil323" points="187.28,7.03 185.9,6.89 184.6,9.18 "/>
    <polygon class="fil324" points="174.44,7.59 173.01,9.14 174.28,10.17 "/>
    <polygon class="fil294" points="174.24,12.74 178.44,12.56 174.01,14.57 "/>
    <polygon class="fil325" points="192.97,108.58 193.67,107.51 194.22,109.03 "/>
    <polygon class="fil12" points="191.48,106.25 193.67,107.51 192.97,108.58 "/>
    <polygon class="fil3" points="192.57,104.02 191.48,106.25 191.54,104.44 "/>
   </g>
  </g>
 </g>
</svg>
