<?xml version="1.0" encoding="iso-8859-1"?>
<!-- Generator: Adobe Illustrator 19.0.0, SVG Export Plug-In . SVG Version: 6.00 Build 0)  -->
<svg version="1.1" id="Capa_1" xmlns="http://www.w3.org/2000/svg" xmlns:xlink="http://www.w3.org/1999/xlink" x="0px" y="0px"
	 viewBox="0 0 512 512" style="enable-background:new 0 0 512 512;" xml:space="preserve">
<g>
	<g>
		<path d="M447.123,83.218L366.535,2.538C364.911,0.913,362.708,0,360.411,0H70.974c-4.78,0-8.656,3.876-8.656,8.656v494.688
			c0,4.78,3.876,8.656,8.656,8.656H441c4.78,0,8.656-3.876,8.655-8.656V89.336C449.655,87.042,448.744,84.841,447.123,83.218z
			 M432.344,494.688H79.631V17.312h277.192l75.521,75.606V494.688z"/>
	</g>
</g>
<g>
	<g>
		<path d="M447.147,83.191L366.512,2.557c-2.477-2.475-6.199-3.215-9.434-1.876c-3.234,1.34-5.343,4.496-5.343,7.997v80.635
			c0,4.78,3.876,8.656,8.656,8.656h80.635c3.501,0,6.656-2.111,7.996-5.345C450.363,89.39,449.622,85.666,447.147,83.191z
			 M369.047,80.657v-51.08l51.082,51.08H369.047z"/>
	</g>
</g>
<g>
	<g>
		<path d="M182.562,43.529h-71.637c-4.78,0-8.656,3.876-8.656,8.656s3.876,8.656,8.656,8.656h71.637c4.78,0,8.656-3.876,8.656-8.656
			S187.342,43.529,182.562,43.529z"/>
	</g>
</g>
<g>
	<g>
		<path d="M229.573,95.217H110.925c-4.78,0-8.656,3.876-8.656,8.656s3.876,8.656,8.656,8.656h118.648
			c4.781,0,8.656-3.876,8.656-8.656S234.353,95.217,229.573,95.217z"/>
	</g>
</g>
<g>
	<g>
		<path d="M315.651,152.303H197.004c-4.78,0-8.656,3.876-8.656,8.656s3.876,8.656,8.656,8.656h118.648
			c4.78,0,8.656-3.876,8.656-8.656S320.432,152.303,315.651,152.303z"/>
	</g>
</g>
<g>
	<g>
		<path d="M401.048,408.905H282.402c-4.78,0-8.656,3.876-8.656,8.656s3.876,8.656,8.656,8.656h118.647
			c4.78,0,8.656-3.876,8.656-8.656S405.829,408.905,401.048,408.905z"/>
	</g>
</g>
<g>
	<g>
		<path d="M401.048,451.159h-59.322c-4.78,0-8.656,3.876-8.656,8.656s3.876,8.656,8.656,8.656h59.322
			c4.78,0,8.656-3.876,8.656-8.656S405.829,451.159,401.048,451.159z"/>
	</g>
</g>
<g>
	<g>
		<path d="M401.048,199.322H111.606c-4.78,0-8.656,3.876-8.656,8.656s3.876,8.656,8.656,8.656h289.443
			c4.78,0,8.656-3.876,8.656-8.656S405.829,199.322,401.048,199.322z"/>
	</g>
</g>
<g>
	<g>
		<path d="M401.048,241.295H111.606c-4.78,0-8.656,3.876-8.656,8.656s3.876,8.656,8.656,8.656h289.443
			c4.78,0,8.656-3.876,8.656-8.656S405.829,241.295,401.048,241.295z"/>
	</g>
</g>
<g>
	<g>
		<path d="M256.328,283.268H111.606c-4.78,0-8.656,3.876-8.656,8.656s3.876,8.656,8.656,8.656h144.723
			c4.78,0,8.656-3.876,8.656-8.656S261.108,283.268,256.328,283.268z"/>
	</g>
</g>
<g>
	<g>
		<path d="M401.048,325.241H111.606c-4.78,0-8.656,3.876-8.656,8.656s3.876,8.656,8.656,8.656h289.443
			c4.78,0,8.656-3.876,8.656-8.656S405.829,325.241,401.048,325.241z"/>
	</g>
</g>
<g>
	<g>
		<path d="M256.328,367.214H111.606c-4.78,0-8.656,3.876-8.656,8.656c0,4.78,3.876,8.656,8.656,8.656h144.723
			c4.78,0,8.656-3.876,8.656-8.656C264.984,371.089,261.108,367.214,256.328,367.214z"/>
	</g>
</g>
<g>
</g>
<g>
</g>
<g>
</g>
<g>
</g>
<g>
</g>
<g>
</g>
<g>
</g>
<g>
</g>
<g>
</g>
<g>
</g>
<g>
</g>
<g>
</g>
<g>
</g>
<g>
</g>
<g>
</g>
</svg>
