<?xml version="1.0" encoding="iso-8859-1"?>
<!-- Generator: Adobe Illustrator 19.0.0, SVG Export Plug-In . SVG Version: 6.00 Build 0)  -->
<svg version="1.1" id="Capa_1" xmlns="http://www.w3.org/2000/svg" xmlns:xlink="http://www.w3.org/1999/xlink" x="0px" y="0px"
	 viewBox="0 0 511.998 511.998" style="enable-background:new 0 0 511.998 511.998;" xml:space="preserve">
<g>
	<g>
		<path d="M505.922,394.789l-93.712-93.578c-4.025-4.018-9.333-6.146-15.054-6.068c-5.672,0.106-10.925,2.453-14.788,6.61
			c-8.015,8.621-15.297,16.208-21.627,22.53l-0.792,0.783c-1.624,1.624-2.536,3.827-2.535,6.125s0.914,4.499,2.54,6.122
			l112.913,112.753c1.627,1.624,3.828,2.531,6.117,2.531c0.125,0,0.253-0.003,0.379-0.009c2.423-0.107,4.691-1.225,6.25-3.083
			c9.329-11.111,17.161-21.04,22.089-27.414C514.05,413.881,513.285,402.144,505.922,394.789z M494.007,411.501
			c-3.726,4.818-9.145,11.709-15.623,19.606l-100.091-99.95c5.138-5.253,10.75-11.155,16.758-17.618c0,0,0,0,0.001,0
			c0.857-0.923,1.889-1.077,2.429-1.086c0.549-0.032,1.595,0.107,2.498,1.01l93.712,93.578
			C494.923,408.27,495.056,410.145,494.007,411.501z"/>
	</g>
</g>
<g>
	<g>
		<path d="M467.253,458.207L351.239,342.359c-2.313-2.311-5.737-3.121-8.842-2.091c-31.611,10.485-72.658-0.34-107.124-28.245
			c-46.249-37.449-72.846-97.612-63.243-143.053c0.606-2.866-0.279-5.844-2.352-7.915L52.65,44.195
			c-3.258-3.254-8.492-3.387-11.911-0.305C4.223,76.796,0,91.225,0,99.217c0,40.196,19.426,91.718,56.18,148.999
			c33.823,52.713,80.262,106.764,130.761,152.192c79.57,71.579,156.818,111.576,214.553,111.574c4.164,0,8.227-0.209,12.181-0.628
			c7.658-0.81,21.572-5.962,53.844-41.174C470.652,466.763,470.534,461.484,467.253,458.207z M411.849,494.139
			c-27.555,2.922-61.167-5.711-99.896-25.66c-35.901-18.493-75.125-46.481-113.433-80.943
			C93.521,293.081,17.313,171.825,17.313,99.217c0-1.704,1.476-11.103,28.972-36.912l107.93,107.776
			c-3.921,24.162,0.354,52.162,12.211,79.45c12.547,28.873,33.128,55.845,57.951,75.946c37.798,30.604,81.575,42.63,118.279,32.777
			l106.44,106.29C424.02,490.898,414.328,493.876,411.849,494.139z"/>
	</g>
</g>
<g>
	<g>
		<path d="M209.885,99.172L116.643,6.06c-7.251-7.239-18.886-8.081-27.069-1.956c0,0.001-0.001,0.001-0.001,0.001
			c-6.505,4.87-16.631,12.619-27.927,21.869c-1.893,1.549-3.041,3.827-3.162,6.271c-0.121,2.443,0.797,4.824,2.529,6.552
			l112.671,112.512c1.69,1.688,3.903,2.531,6.117,2.531c2.215,0,4.431-0.845,6.122-2.535c0.021-0.02,0.15-0.15,0.17-0.171
			c6.472-6.463,14.27-13.885,23.177-22.057c4.2-3.853,6.579-9.11,6.699-14.802C216.087,108.572,213.927,103.208,209.885,99.172z
			 M197.563,116.318c-6.51,5.972-12.448,11.562-17.719,16.674L80.059,33.35c7.998-6.386,14.99-11.718,19.887-15.386
			c1.365-1.019,3.241-0.872,4.462,0.347l93.243,93.112c0.902,0.901,1.018,1.943,1.006,2.484
			C198.646,114.443,198.49,115.469,197.563,116.318z"/>
	</g>
</g>
<g>
</g>
<g>
</g>
<g>
</g>
<g>
</g>
<g>
</g>
<g>
</g>
<g>
</g>
<g>
</g>
<g>
</g>
<g>
</g>
<g>
</g>
<g>
</g>
<g>
</g>
<g>
</g>
<g>
</g>
</svg>
